<?xml version="1.0" encoding="UTF-8" standalone="no"?>
<!-- Created with Inkscape (http://www.inkscape.org/) -->

<svg
   xmlns:dc="http://purl.org/dc/elements/1.1/"
   xmlns:cc="http://creativecommons.org/ns#"
   xmlns:rdf="http://www.w3.org/1999/02/22-rdf-syntax-ns#"
   xmlns:svg="http://www.w3.org/2000/svg"
   xmlns="http://www.w3.org/2000/svg"
   xmlns:sodipodi="http://sodipodi.sourceforge.net/DTD/sodipodi-0.dtd"
   xmlns:inkscape="http://www.inkscape.org/namespaces/inkscape"
   width="210mm"
   height="297mm"
   viewBox="0 0 210 297"
   version="1.1"
   id="svg8"
   inkscape:version="0.92.3 (2405546, 2018-03-11)"
   sodipodi:docname="100x100_markers.svg">
  <sodipodi:namedview
     id="base"
     pagecolor="#ffffff"
     bordercolor="#666666"
     borderopacity="1.0"
     inkscape:pageopacity="0.0"
     inkscape:pageshadow="2"
     inkscape:zoom="1"
     inkscape:cx="467.0055"
     inkscape:cy="659.03222"
     inkscape:document-units="mm"
     inkscape:current-layer="layer1"
     showgrid="false"
     inkscape:window-width="1920"
     inkscape:window-height="996"
     inkscape:window-x="0"
     inkscape:window-y="28"
     inkscape:window-maximized="1" />
  <defs
     id="defs2" />
  <metadata
     id="metadata5">
    <rdf:RDF>
      <cc:Work
         rdf:about="">
        <dc:format>image/svg+xml</dc:format>
        <dc:type
           rdf:resource="http://purl.org/dc/dcmitype/StillImage" />
        <dc:title />
      </cc:Work>
    </rdf:RDF>
  </metadata>
  <g
     inkscape:label="Layer 1"
     inkscape:groupmode="layer"
     id="layer1">
    <g
       id="g919">
      <path
         style="fill:none;stroke:#000000;stroke-width:0.35277778;stroke-linecap:butt;stroke-linejoin:miter;stroke-miterlimit:4;stroke-dasharray:none;stroke-opacity:1"
         d="M 53.637732,137.13488 H 153.63772"
         id="path821"
         inkscape:connector-curvature="0" />
      <path
         inkscape:connector-curvature="0"
         id="path823"
         d="M 103.63773,187.13488 V 87.134875"
         style="fill:none;stroke:#000000;stroke-width:0.35277778;stroke-linecap:butt;stroke-linejoin:miter;stroke-miterlimit:4;stroke-dasharray:none;stroke-opacity:1" />
      <path
         style="fill:none;fill-opacity:1;stroke:#0b0b0b;stroke-width:0.35068181;stroke-miterlimit:4;stroke-dasharray:none;stroke-opacity:1"
         d="m 108.46239,137.13487 a 4.8246626,4.8246626 0 0 1 -4.82464,4.82468 4.8246626,4.8246626 0 0 1 -4.824681,-4.82468 4.8246626,4.8246626 0 0 1 4.824681,-4.82466 4.8246626,4.8246626 0 0 1 4.82464,4.82466 z"
         id="path851"
         inkscape:connector-curvature="0" />
      <path
         style="fill:none;fill-opacity:1;stroke:#0b0b0b;stroke-width:0.35272965;stroke-miterlimit:4;stroke-dasharray:none;stroke-opacity:1"
         d="m 113.46137,137.13487 a 9.8236356,9.8236356 0 0 1 -9.82363,9.82364 9.8236356,9.8236356 0 0 1 -9.823649,-9.82364 9.8236356,9.8236356 0 0 1 9.823649,-9.82363 9.8236356,9.8236356 0 0 1 9.82363,9.82363 z"
         id="circle855"
         inkscape:connector-curvature="0" />
      <path
         inkscape:connector-curvature="0"
         id="path859"
         d="M 53.814925,87.312077 H 153.46053 V 186.95767 H 53.814925 Z"
         style="fill:none;fill-opacity:1;stroke:#0b0b0b;stroke-width:0.35439113;stroke-miterlimit:4;stroke-dasharray:none;stroke-opacity:1" />
      <path
         style="fill:none;fill-opacity:1;stroke:#0b0b0b;stroke-width:0.35407755;stroke-miterlimit:4;stroke-dasharray:none;stroke-opacity:1"
         d="M 63.814767,97.311903 H 143.46069 V 176.95785 H 63.814767 Z"
         id="path861"
         inkscape:connector-curvature="0" />
      <path
         inkscape:connector-curvature="0"
         id="path863"
         d="M 73.814506,107.31165 H 133.46095 V 166.9581 H 73.814506 Z"
         style="fill:none;fill-opacity:1;stroke:#0b0b0b;stroke-width:0.35355589;stroke-miterlimit:4;stroke-dasharray:none;stroke-opacity:1" />
      <path
         style="fill:none;fill-opacity:1;stroke:#0b0b0b;stroke-width:0.35251734;stroke-miterlimit:4;stroke-dasharray:none;stroke-opacity:1"
         d="m 83.813987,117.31113 h 39.647483 v 39.6475 H 83.813987 Z"
         id="path865"
         inkscape:connector-curvature="0" />
      <path
         inkscape:connector-curvature="0"
         id="path867"
         d="m 93.812445,127.3096 h 19.650565 v 19.65055 H 93.812445 Z"
         style="fill:none;fill-opacity:1;stroke:#0b0b0b;stroke-width:0.34943762;stroke-miterlimit:4;stroke-dasharray:none;stroke-opacity:1" />
      <path
         style="fill:none;fill-opacity:1;stroke:#0b0b0b;stroke-width:0.3517932;stroke-miterlimit:4;stroke-dasharray:none;stroke-opacity:1"
         d="M 123.46183,137.13485 A 19.824124,19.824124 0 0 1 103.6378,156.95902 19.824124,19.824124 0 0 1 83.813627,137.13485 19.824124,19.824124 0 0 1 103.6378,117.31073 19.824124,19.824124 0 0 1 123.46183,137.13485 Z"
         id="path907"
         inkscape:connector-curvature="0" />
    </g>
  </g>
  <defs
     id="defs1030">
    <marker
       id="DrawCurveMarker"
       orient="auto"
       refX="-8"
       refY="-2.41063"
       style="overflow:visible">
      <path
         d="m -6.55552,-2.41063 0,0 L -13.11104,0 c 1.0473,-1.42323 1.04126,-3.37047 0,-4.82126"
         style="fill:#000044; fill-rule:evenodd;stroke-width:0.62500000;stroke-linejoin:round;"
         id="path1027" />
    </marker>
  </defs>
  <defs
     id="defs1035">
    <marker
       id="DrawCurveMarker_r"
       orient="auto"
       refX="8"
       refY="-2.41063"
       style="overflow:visible">
      <path
         d="m 6.55552,-2.41063 0,0 L 13.11104,0 c -1.0473,-1.42323 -1.04126,-3.37047 0,-4.82126"
         style="fill:#000044; fill-rule:evenodd;stroke-width:0.62500000;stroke-linejoin:round;"
         id="path1032" />
    </marker>
  </defs>
</svg>
