<?xml version="1.0" encoding="UTF-8" standalone="no"?>
<!-- Created with Inkscape (http://www.inkscape.org/) -->

<svg
   xmlns:dc="http://purl.org/dc/elements/1.1/"
   xmlns:cc="http://creativecommons.org/ns#"
   xmlns:rdf="http://www.w3.org/1999/02/22-rdf-syntax-ns#"
   xmlns:svg="http://www.w3.org/2000/svg"
   xmlns="http://www.w3.org/2000/svg"
   xmlns:sodipodi="http://sodipodi.sourceforge.net/DTD/sodipodi-0.dtd"
   xmlns:inkscape="http://www.inkscape.org/namespaces/inkscape"
   sodipodi:docname="100x100_markers.svg"
   inkscape:version="0.92.3 (2405546, 2018-03-11)"
   id="svg8"
   version="1.1"
   viewBox="0 0 210 297"
   height="297mm"
   width="210mm">
  <sodipodi:namedview
     inkscape:snap-global="true"
     inkscape:window-maximized="1"
     inkscape:window-y="28"
     inkscape:window-x="0"
     inkscape:window-height="1356"
     inkscape:window-width="2560"
     showgrid="false"
     inkscape:current-layer="svg8"
     inkscape:document-units="mm"
     inkscape:cy="477.03942"
     inkscape:cx="427.94936"
     inkscape:zoom="0.85"
     inkscape:pageshadow="2"
     inkscape:pageopacity="0.0"
     borderopacity="1.0"
     bordercolor="#666666"
     pagecolor="#ffffff"
     id="base" />
  <defs
     id="defs2" />
  <metadata
     id="metadata5">
    <rdf:RDF>
      <cc:Work
         rdf:about="">
        <dc:format>image/svg+xml</dc:format>
        <dc:type
           rdf:resource="http://purl.org/dc/dcmitype/StillImage" />
        <dc:title />
      </cc:Work>
    </rdf:RDF>
  </metadata>
  <g
     inkscape:label="Layer 1"
     inkscape:groupmode="layer"
     id="layer1">
    <g
       id="g864">
      <path
         style="fill:none;stroke:#000000;stroke-width:0.26458332;stroke-linecap:butt;stroke-linejoin:miter;stroke-miterlimit:4;stroke-dasharray:none;stroke-opacity:1"
         d="M 52.365047,126.65051 H 152.36503"
         id="path821"
         inkscape:connector-curvature="0" />
      <path
         inkscape:connector-curvature="0"
         id="path823"
         d="M 102.36504,176.65052 V 76.650502"
         style="fill:none;stroke:#000000;stroke-width:0.26458332;stroke-linecap:butt;stroke-linejoin:miter;stroke-miterlimit:4;stroke-dasharray:none;stroke-opacity:1" />
      <path
         style="fill:none;fill-opacity:1;stroke:#0b0b0b;stroke-width:0.26458332;stroke-miterlimit:4;stroke-dasharray:none;stroke-opacity:1"
         d="m 104.77737,126.6505 a 2.4123306,2.4123306 0 0 1 -2.41232,2.41234 2.4123306,2.4123306 0 0 1 -2.412341,-2.41234 2.4123306,2.4123306 0 0 1 2.412341,-2.41233 2.4123306,2.4123306 0 0 1 2.41232,2.41233 z"
         id="path851"
         inkscape:connector-curvature="0" />
      <path
         style="fill:none;fill-opacity:1;stroke:#0b0b0b;stroke-width:0.26458332;stroke-miterlimit:4;stroke-dasharray:none;stroke-opacity:1"
         d="m 112.18868,126.65051 a 9.8236356,9.8236356 0 0 1 -9.82363,9.82364 9.8236356,9.8236356 0 0 1 -9.823648,-9.82364 9.8236356,9.8236356 0 0 1 9.823648,-9.82363 9.8236356,9.8236356 0 0 1 9.82363,9.82363 z"
         id="circle855"
         inkscape:connector-curvature="0" />
      <path
         inkscape:connector-curvature="0"
         id="path859"
         d="M 52.542239,76.827711 H 152.18784 V 176.47331 H 52.542239 Z"
         style="fill:none;fill-opacity:1;stroke:#0b0b0b;stroke-width:0.26458332;stroke-miterlimit:4;stroke-dasharray:none;stroke-opacity:1" />
      <path
         style="fill:none;fill-opacity:1;stroke:#0b0b0b;stroke-width:0.26458332;stroke-miterlimit:4;stroke-dasharray:none;stroke-opacity:1"
         d="M 62.54208,86.827531 H 142.188 V 166.47349 H 62.54208 Z"
         id="path861"
         inkscape:connector-curvature="0" />
      <path
         inkscape:connector-curvature="0"
         id="path863"
         d="M 72.541819,96.827285 H 132.18826 V 156.47373 H 72.541819 Z"
         style="fill:none;fill-opacity:1;stroke:#0b0b0b;stroke-width:0.26458332;stroke-miterlimit:4;stroke-dasharray:none;stroke-opacity:1" />
      <path
         style="fill:none;fill-opacity:1;stroke:#0b0b0b;stroke-width:0.26458332;stroke-miterlimit:4;stroke-dasharray:none;stroke-opacity:1"
         d="m 82.5413,106.82676 h 39.64748 v 39.6475 H 82.5413 Z"
         id="path865"
         inkscape:connector-curvature="0" />
      <path
         inkscape:connector-curvature="0"
         id="path867"
         d="m 92.539759,116.82523 h 19.650561 v 19.65055 H 92.539759 Z"
         style="fill:none;fill-opacity:1;stroke:#0b0b0b;stroke-width:0.26458332;stroke-miterlimit:4;stroke-dasharray:none;stroke-opacity:1" />
      <path
         style="fill:none;fill-opacity:1;stroke:#0b0b0b;stroke-width:0.26516148;stroke-miterlimit:4;stroke-dasharray:none;stroke-opacity:1"
         d="m 122.23246,126.65049 a 19.867443,19.867443 0 0 1 -19.86735,19.86748 19.867443,19.867443 0 0 1 -19.867491,-19.86748 19.867443,19.867443 0 0 1 19.867491,-19.86744 19.867443,19.867443 0 0 1 19.86735,19.86744 z"
         id="path907"
         inkscape:connector-curvature="0" />
      <path
         inkscape:connector-curvature="0"
         id="path839"
         d="M 142.23202,126.65046 A 39.867038,39.866935 0 0 1 102.36518,166.5175 39.867038,39.866935 0 0 1 62.498063,126.65046 39.867038,39.866935 0 0 1 102.36518,86.783524 39.867038,39.866935 0 0 1 142.23202,126.65046 Z"
         style="fill:none;fill-opacity:1;stroke:#0b0b0b;stroke-width:0.26604328;stroke-miterlimit:4;stroke-dasharray:none;stroke-opacity:1" />
      <path
         style="fill:none;fill-opacity:1;stroke:#0b0b0b;stroke-width:0.3325541;stroke-miterlimit:4;stroke-dasharray:none;stroke-opacity:1"
         d="m 152.19876,126.65045 a 49.833798,49.833668 0 0 1 -49.83355,49.83379 49.833798,49.833668 0 0 1 -49.833895,-49.83379 49.833798,49.833668 0 0 1 49.833895,-49.83367 49.833798,49.833668 0 0 1 49.83355,49.83367 z"
         id="path841"
         inkscape:connector-curvature="0" />
      <path
         inkscape:connector-curvature="0"
         id="path843"
         d="M 132.16617,126.65048 A 29.801163,29.801163 0 0 1 102.36514,156.45171 29.801163,29.801163 0 0 1 72.563909,126.65048 29.801163,29.801163 0 0 1 102.36514,96.849314 29.801163,29.801163 0 0 1 132.16617,126.65048 Z"
         style="fill:none;fill-opacity:1;stroke:#0b0b0b;stroke-width:0.39774221;stroke-miterlimit:4;stroke-dasharray:none;stroke-opacity:1" />
      <path
         inkscape:connector-curvature="0"
         id="path845"
         d="m 52.542238,76.82771 99.645602,99.6456"
         style="fill:none;stroke:#000000;stroke-width:0.26458332px;stroke-linecap:butt;stroke-linejoin:miter;stroke-opacity:1" />
      <path
         inkscape:connector-curvature="0"
         id="path847"
         d="m 152.18784,76.82771 -99.645602,99.6456"
         style="fill:none;stroke:#000000;stroke-width:0.26458332px;stroke-linecap:butt;stroke-linejoin:miter;stroke-opacity:1" />
    </g>
  </g>
  <defs
     id="defs1030">
    <marker
       id="DrawCurveMarker"
       orient="auto"
       refX="-8"
       refY="-2.41063"
       style="overflow:visible">
      <path
         d="m -6.55552,-2.41063 0,0 L -13.11104,0 c 1.0473,-1.42323 1.04126,-3.37047 0,-4.82126"
         style="fill:#000044; fill-rule:evenodd;stroke-width:0.62500000;stroke-linejoin:round;"
         id="path1027" />
    </marker>
  </defs>
  <defs
     id="defs1035">
    <marker
       id="DrawCurveMarker_r"
       orient="auto"
       refX="8"
       refY="-2.41063"
       style="overflow:visible">
      <path
         d="m 6.55552,-2.41063 0,0 L 13.11104,0 c -1.0473,-1.42323 -1.04126,-3.37047 0,-4.82126"
         style="fill:#000044; fill-rule:evenodd;stroke-width:0.62500000;stroke-linejoin:round;"
         id="path1032" />
    </marker>
  </defs>
</svg>
