<?xml version="1.0" encoding="UTF-8" standalone="no"?>
<!-- Created with Inkscape (http://www.inkscape.org/) -->

<svg
   xmlns:dc="http://purl.org/dc/elements/1.1/"
   xmlns:cc="http://creativecommons.org/ns#"
   xmlns:rdf="http://www.w3.org/1999/02/22-rdf-syntax-ns#"
   xmlns:svg="http://www.w3.org/2000/svg"
   xmlns="http://www.w3.org/2000/svg"
   xmlns:sodipodi="http://sodipodi.sourceforge.net/DTD/sodipodi-0.dtd"
   xmlns:inkscape="http://www.inkscape.org/namespaces/inkscape"
   sodipodi:docname="grid_4.svg"
   inkscape:version="0.92.5 (2060ec1f9f, 2020-04-08)"
   id="svg8"
   version="1.1"
   viewBox="0 0 210 297"
   height="297mm"
   width="210mm">
  <sodipodi:namedview
     inkscape:snap-global="true"
     inkscape:window-maximized="1"
     inkscape:window-y="28"
     inkscape:window-x="0"
     inkscape:window-height="1357"
     inkscape:window-width="2560"
     showgrid="false"
     inkscape:current-layer="layer1"
     inkscape:document-units="mm"
     inkscape:cy="662.08681"
     inkscape:cx="479.46807"
     inkscape:zoom="2.28"
     inkscape:pageshadow="2"
     inkscape:pageopacity="0.0"
     borderopacity="1.0"
     bordercolor="#666666"
     pagecolor="#ffffff"
     id="base"
     inkscape:snap-nodes="false" />
  <defs
     id="defs2" />
  <metadata
     id="metadata5">
    <rdf:RDF>
      <cc:Work
         rdf:about="">
        <dc:format>image/svg+xml</dc:format>
        <dc:type
           rdf:resource="http://purl.org/dc/dcmitype/StillImage" />
        <dc:title />
      </cc:Work>
    </rdf:RDF>
  </metadata>
  <g
     inkscape:label="Layer 1"
     inkscape:groupmode="layer"
     id="layer1">
    <path
       inkscape:connector-curvature="0"
       id="path821"
       d="M 52.631056,126.84868 H 152.63104"
       style="fill:none;stroke:#000000;stroke-width:0.26458332;stroke-linecap:butt;stroke-linejoin:miter;stroke-miterlimit:4;stroke-dasharray:none;stroke-opacity:1" />
    <path
       style="fill:none;stroke:#000000;stroke-width:0.26458332;stroke-linecap:butt;stroke-linejoin:miter;stroke-miterlimit:4;stroke-dasharray:none;stroke-opacity:1"
       d="M 102.63105,176.84869 V 76.84867"
       id="path823"
       inkscape:connector-curvature="0" />
    <path
       inkscape:connector-curvature="0"
       id="circle855"
       d="m 112.45469,126.84868 a 9.8236356,9.8236356 0 0 1 -9.82363,9.82364 9.8236356,9.8236356 0 0 1 -9.823653,-9.82364 9.8236356,9.8236356 0 0 1 9.823653,-9.82363 9.8236356,9.8236356 0 0 1 9.82363,9.82363 z"
       style="fill:none;fill-opacity:1;stroke:#0b0b0b;stroke-width:0.26458332;stroke-miterlimit:4;stroke-dasharray:none;stroke-opacity:1" />
    <path
       style="fill:none;fill-opacity:1;stroke:#0b0b0b;stroke-width:0.26458332;stroke-miterlimit:4;stroke-dasharray:none;stroke-opacity:1"
       d="m 52.808246,77.02588 h 99.645604 v 99.6456 H 52.808246 Z"
       id="path859"
       inkscape:connector-curvature="0" />
    <path
       inkscape:connector-curvature="0"
       id="path861"
       d="m 62.808086,87.0257 h 79.645924 v 79.64596 H 62.808086 Z"
       style="fill:none;fill-opacity:1;stroke:#0b0b0b;stroke-width:0.26458332;stroke-miterlimit:4;stroke-dasharray:none;stroke-opacity:1" />
    <path
       style="fill:none;fill-opacity:1;stroke:#0b0b0b;stroke-width:0.26458332;stroke-miterlimit:4;stroke-dasharray:none;stroke-opacity:1"
       d="M 72.807826,97.025459 H 132.45427 V 156.6719 H 72.807826 Z"
       id="path863"
       inkscape:connector-curvature="0" />
    <path
       inkscape:connector-curvature="0"
       id="path865"
       d="m 82.807307,107.02493 h 39.647483 v 39.6475 H 82.807307 Z"
       style="fill:none;fill-opacity:1;stroke:#0b0b0b;stroke-width:0.26458332;stroke-miterlimit:4;stroke-dasharray:none;stroke-opacity:1" />
    <path
       style="fill:none;fill-opacity:1;stroke:#0b0b0b;stroke-width:0.26458332;stroke-miterlimit:4;stroke-dasharray:none;stroke-opacity:1"
       d="m 92.805766,117.02341 h 19.650564 v 19.65055 H 92.805766 Z"
       id="path867"
       inkscape:connector-curvature="0" />
    <path
       inkscape:connector-curvature="0"
       id="path907"
       d="m 122.49847,126.84866 a 19.867443,19.867443 0 0 1 -19.86735,19.86748 19.867443,19.867443 0 0 1 -19.867494,-19.86748 19.867443,19.867443 0 0 1 19.867494,-19.86744 19.867443,19.867443 0 0 1 19.86735,19.86744 z"
       style="fill:none;fill-opacity:1;stroke:#0b0b0b;stroke-width:0.26458332;stroke-miterlimit:4;stroke-dasharray:none;stroke-opacity:1" />
    <path
       style="fill:none;fill-opacity:1;stroke:#0b0b0b;stroke-width:0.26458332;stroke-miterlimit:4;stroke-dasharray:none;stroke-opacity:1"
       d="M 142.49803,126.84863 A 39.867038,39.866935 0 0 1 102.63119,166.71567 39.867038,39.866935 0 0 1 62.764067,126.84863 39.867038,39.866935 0 0 1 102.63119,86.981691 39.867038,39.866935 0 0 1 142.49803,126.84863 Z"
       id="path839"
       inkscape:connector-curvature="0" />
    <path
       inkscape:connector-curvature="0"
       id="path841"
       d="m 152.46477,126.84862 a 49.833798,49.833668 0 0 1 -49.83355,49.83379 49.833798,49.833668 0 0 1 -49.833895,-49.83379 49.833798,49.833668 0 0 1 49.833895,-49.83367 49.833798,49.833668 0 0 1 49.83355,49.83367 z"
       style="fill:none;fill-opacity:1;stroke:#0b0b0b;stroke-width:0.26458332;stroke-miterlimit:4;stroke-dasharray:none;stroke-opacity:1" />
    <path
       style="fill:none;fill-opacity:1;stroke:#0b0b0b;stroke-width:0.26458332;stroke-miterlimit:4;stroke-dasharray:none;stroke-opacity:1"
       d="M 132.43218,126.84865 A 29.801163,29.801163 0 0 1 102.63115,156.64988 29.801163,29.801163 0 0 1 72.829917,126.84865 29.801163,29.801163 0 0 1 102.63115,97.047481 29.801163,29.801163 0 0 1 132.43218,126.84865 Z"
       id="path843"
       inkscape:connector-curvature="0" />
    <path
       style="fill:none;stroke:#000000;stroke-width:0.26458332;stroke-linecap:butt;stroke-linejoin:miter;stroke-miterlimit:4;stroke-dasharray:none;stroke-opacity:1"
       d="m 52.808246,77.02588 99.645604,99.6456"
       id="path845"
       inkscape:connector-curvature="0" />
    <path
       style="fill:none;stroke:#000000;stroke-width:0.26458332;stroke-linecap:butt;stroke-linejoin:miter;stroke-miterlimit:4;stroke-dasharray:none;stroke-opacity:1"
       d="m 152.45385,77.02588 -99.645604,99.6456"
       id="path847"
       inkscape:connector-curvature="0" />
    <path
       style="fill:none;fill-opacity:1;stroke:#0b0b0b;stroke-width:0.26458332;stroke-miterlimit:4;stroke-dasharray:none;stroke-opacity:1"
       d="M 147.4814,126.84871 A 44.850494,44.850378 0 0 1 102.63127,171.69903 44.850494,44.850378 0 0 1 57.780695,126.84871 44.850494,44.850378 0 0 1 102.63127,81.998329 44.850494,44.850378 0 0 1 147.4814,126.84871 Z"
       id="path852"
       inkscape:connector-curvature="0" />
    <path
       inkscape:connector-curvature="0"
       id="path854"
       d="M 137.51465,126.84863 A 34.883658,34.883568 0 0 1 102.63117,161.73229 34.883658,34.883568 0 0 1 67.747444,126.84863 34.883658,34.883568 0 0 1 102.63117,91.965068 34.883658,34.883568 0 0 1 137.51465,126.84863 Z"
       style="fill:none;fill-opacity:1;stroke:#0b0b0b;stroke-width:0.26458332;stroke-miterlimit:4;stroke-dasharray:none;stroke-opacity:1" />
    <path
       inkscape:connector-curvature="0"
       id="path856"
       d="m 127.46532,126.84866 a 24.834302,24.834302 0 0 1 -24.83419,24.83436 24.834302,24.834302 0 0 1 -24.834354,-24.83436 24.834302,24.834302 0 0 1 24.834354,-24.83431 24.834302,24.834302 0 0 1 24.83419,24.83431 z"
       style="fill:none;fill-opacity:1;stroke:#0b0b0b;stroke-width:0.26458332;stroke-miterlimit:4;stroke-dasharray:none;stroke-opacity:1" />
    <path
       style="fill:none;fill-opacity:1;stroke:#0b0b0b;stroke-width:0.26458332;stroke-miterlimit:4;stroke-dasharray:none;stroke-opacity:1"
       d="m 117.53161,126.84867 a 14.900581,14.900581 0 0 1 -14.9005,14.9006 14.900581,14.900581 0 0 1 -14.900624,-14.9006 14.900581,14.900581 0 0 1 14.900624,-14.90058 14.900581,14.900581 0 0 1 14.9005,14.90058 z"
       id="path858"
       inkscape:connector-curvature="0" />
    <path
       style="fill:none;fill-opacity:1;stroke:#0b0b0b;stroke-width:0.26458332;stroke-miterlimit:4;stroke-dasharray:none;stroke-opacity:1"
       d="m 107.56461,126.84868 a 4.9335597,4.9335597 0 0 1 -4.93355,4.93356 4.9335597,4.9335597 0 0 1 -4.933574,-4.93356 4.9335597,4.9335597 0 0 1 4.933574,-4.93356 4.9335597,4.9335597 0 0 1 4.93355,4.93356 z"
       id="path862"
       inkscape:connector-curvature="0" />
    <path
       inkscape:connector-curvature="0"
       id="path864"
       d="M 57.750216,81.967851 H 147.51188 V 171.72951 H 57.750216 Z"
       style="fill:none;fill-opacity:1;stroke:#0b0b0b;stroke-width:0.26458332;stroke-miterlimit:4;stroke-dasharray:none;stroke-opacity:1" />
    <path
       style="fill:none;fill-opacity:1;stroke:#0b0b0b;stroke-width:0.26458332;stroke-miterlimit:4;stroke-dasharray:none;stroke-opacity:1"
       d="M 67.746936,91.964549 H 137.51516 V 161.73281 H 67.746936 Z"
       id="path866"
       inkscape:connector-curvature="0" />
    <path
       inkscape:connector-curvature="0"
       id="path868"
       d="m 77.741454,101.95909 h 49.779186 v 49.77918 H 77.741454 Z"
       style="fill:none;fill-opacity:1;stroke:#0b0b0b;stroke-width:0.26458332;stroke-miterlimit:4;stroke-dasharray:none;stroke-opacity:1" />
    <path
       style="fill:none;fill-opacity:1;stroke:#0b0b0b;stroke-width:0.26458333;stroke-miterlimit:4;stroke-dasharray:none;stroke-opacity:1"
       d="m 87.730485,111.94811 h 29.801125 v 29.80114 H 87.730485 Z"
       id="path870"
       inkscape:connector-curvature="0" />
    <path
       inkscape:connector-curvature="0"
       id="path872"
       d="m 62.77524,77.031763 39.82993,39.829907"
       style="fill:none;stroke:#000000;stroke-width:0.26458333;stroke-linecap:butt;stroke-linejoin:miter;stroke-miterlimit:4;stroke-dasharray:none;stroke-opacity:1" />
    <path
       style="fill:none;stroke:#000000;stroke-width:0.26458333;stroke-linecap:butt;stroke-linejoin:miter;stroke-miterlimit:4;stroke-dasharray:none;stroke-opacity:1"
       d="M 72.828257,76.937539 102.7303,106.83954"
       id="path884"
       inkscape:connector-curvature="0" />
    <path
       inkscape:connector-curvature="0"
       id="path886"
       d="M 132.62956,76.937539 102.7275,106.83954"
       style="fill:none;stroke:#000000;stroke-width:0.26458332;stroke-linecap:butt;stroke-linejoin:miter;stroke-miterlimit:4;stroke-dasharray:none;stroke-opacity:1" />
    <path
       inkscape:connector-curvature="0"
       id="path888"
       d="M 72.828257,176.53665 102.7303,146.63463"
       style="fill:none;stroke:#000000;stroke-width:0.26458332;stroke-linecap:butt;stroke-linejoin:miter;stroke-miterlimit:4;stroke-dasharray:none;stroke-opacity:1" />
    <path
       style="fill:none;stroke:#000000;stroke-width:0.26458332;stroke-linecap:butt;stroke-linejoin:miter;stroke-miterlimit:4;stroke-dasharray:none;stroke-opacity:1"
       d="M 132.62956,176.53665 102.7275,146.63463"
       id="path890"
       inkscape:connector-curvature="0" />
    <path
       style="fill:none;stroke:#000000;stroke-width:0.26458332;stroke-linecap:butt;stroke-linejoin:miter;stroke-miterlimit:4;stroke-dasharray:none;stroke-opacity:1"
       d="M 142.46848,77.031763 102.63853,116.86167"
       id="path892"
       inkscape:connector-curvature="0" />
    <path
       style="fill:none;stroke:#000000;stroke-width:0.26458332;stroke-linecap:butt;stroke-linejoin:miter;stroke-miterlimit:4;stroke-dasharray:none;stroke-opacity:1"
       d="M 62.77524,176.56962 102.60517,136.7397"
       id="path894"
       inkscape:connector-curvature="0" />
    <path
       inkscape:connector-curvature="0"
       id="path896"
       d="M 142.46848,176.56962 102.63853,136.7397"
       style="fill:none;stroke:#000000;stroke-width:0.26458332;stroke-linecap:butt;stroke-linejoin:miter;stroke-miterlimit:4;stroke-dasharray:none;stroke-opacity:1" />
    <path
       style="fill:none;stroke:#000000;stroke-width:0.26458332;stroke-linecap:butt;stroke-linejoin:miter;stroke-miterlimit:4;stroke-dasharray:none;stroke-opacity:1"
       d="M 152.34368,86.906959 112.51377,126.73689"
       id="path898"
       inkscape:connector-curvature="0" />
    <path
       inkscape:connector-curvature="0"
       id="path900"
       d="m 152.4379,96.959976 -29.902,29.902044"
       style="fill:none;stroke:#000000;stroke-width:0.26458332;stroke-linecap:butt;stroke-linejoin:miter;stroke-miterlimit:4;stroke-dasharray:none;stroke-opacity:1" />
    <path
       style="fill:none;stroke:#000000;stroke-width:0.26458332;stroke-linecap:butt;stroke-linejoin:miter;stroke-miterlimit:4;stroke-dasharray:none;stroke-opacity:1"
       d="m 152.4379,156.76128 -29.902,-29.90206"
       id="path902"
       inkscape:connector-curvature="0" />
    <path
       style="fill:none;stroke:#000000;stroke-width:0.26458332;stroke-linecap:butt;stroke-linejoin:miter;stroke-miterlimit:4;stroke-dasharray:none;stroke-opacity:1"
       d="m 52.838789,96.959976 29.90202,29.902044"
       id="path904"
       inkscape:connector-curvature="0" />
    <path
       inkscape:connector-curvature="0"
       id="path906"
       d="m 52.838789,156.76128 29.90202,-29.90206"
       style="fill:none;stroke:#000000;stroke-width:0.26458332;stroke-linecap:butt;stroke-linejoin:miter;stroke-miterlimit:4;stroke-dasharray:none;stroke-opacity:1" />
    <path
       inkscape:connector-curvature="0"
       id="path908"
       d="M 152.34368,166.6002 112.51377,126.77025"
       style="fill:none;stroke:#000000;stroke-width:0.26458332;stroke-linecap:butt;stroke-linejoin:miter;stroke-miterlimit:4;stroke-dasharray:none;stroke-opacity:1" />
    <path
       inkscape:connector-curvature="0"
       id="path910"
       d="m 52.805819,86.906959 39.82992,39.829931"
       style="fill:none;stroke:#000000;stroke-width:0.26458332;stroke-linecap:butt;stroke-linejoin:miter;stroke-miterlimit:4;stroke-dasharray:none;stroke-opacity:1" />
    <path
       style="fill:none;stroke:#000000;stroke-width:0.26458332;stroke-linecap:butt;stroke-linejoin:miter;stroke-miterlimit:4;stroke-dasharray:none;stroke-opacity:1"
       d="m 52.805819,166.6002 39.82992,-39.82995"
       id="path912"
       inkscape:connector-curvature="0" />
    <path
       style="fill:none;stroke:#000000;stroke-width:0.26458333;stroke-linecap:butt;stroke-linejoin:miter;stroke-miterlimit:4;stroke-dasharray:none;stroke-opacity:1"
       d="m 152.32693,107.03723 -19.85619,19.85622"
       id="path914"
       inkscape:connector-curvature="0" />
    <path
       inkscape:connector-curvature="0"
       id="path916"
       d="M 152.37524,146.73233 132.47089,126.82794"
       style="fill:none;stroke:#000000;stroke-width:0.26458333;stroke-linecap:butt;stroke-linejoin:miter;stroke-miterlimit:4;stroke-dasharray:none;stroke-opacity:1" />
    <path
       inkscape:connector-curvature="0"
       id="path918"
       d="m 152.36785,117.0505 -9.88989,9.8899"
       style="fill:none;stroke:#000000;stroke-width:0.26458333;stroke-linecap:butt;stroke-linejoin:miter;stroke-miterlimit:4;stroke-dasharray:none;stroke-opacity:1" />
    <path
       style="fill:none;stroke:#000000;stroke-width:0.26458333;stroke-linecap:butt;stroke-linejoin:miter;stroke-miterlimit:4;stroke-dasharray:none;stroke-opacity:1"
       d="m 152.46611,136.76901 -9.98766,-9.98768"
       id="path920"
       inkscape:connector-curvature="0" />
    <path
       inkscape:connector-curvature="0"
       id="path922"
       d="m 52.906934,107.03723 19.856181,19.85622"
       style="fill:none;stroke:#000000;stroke-width:0.26458332;stroke-linecap:butt;stroke-linejoin:miter;stroke-miterlimit:4;stroke-dasharray:none;stroke-opacity:1" />
    <path
       style="fill:none;stroke:#000000;stroke-width:0.26458332;stroke-linecap:butt;stroke-linejoin:miter;stroke-miterlimit:4;stroke-dasharray:none;stroke-opacity:1"
       d="M 52.858624,146.73233 72.762965,126.82794"
       id="path924"
       inkscape:connector-curvature="0" />
    <path
       style="fill:none;stroke:#000000;stroke-width:0.26458332;stroke-linecap:butt;stroke-linejoin:miter;stroke-miterlimit:4;stroke-dasharray:none;stroke-opacity:1"
       d="m 52.866014,117.0505 9.889884,9.8899"
       id="path926"
       inkscape:connector-curvature="0" />
    <path
       inkscape:connector-curvature="0"
       id="path928"
       d="m 52.767754,136.76901 9.987654,-9.98768"
       style="fill:none;stroke:#000000;stroke-width:0.26458332;stroke-linecap:butt;stroke-linejoin:miter;stroke-miterlimit:4;stroke-dasharray:none;stroke-opacity:1" />
    <path
       inkscape:connector-curvature="0"
       id="path930"
       d="M 122.46448,176.59478 102.60826,156.73859"
       style="fill:none;stroke:#000000;stroke-width:0.26458332;stroke-linecap:butt;stroke-linejoin:miter;stroke-miterlimit:4;stroke-dasharray:none;stroke-opacity:1" />
    <path
       style="fill:none;stroke:#000000;stroke-width:0.26458332;stroke-linecap:butt;stroke-linejoin:miter;stroke-miterlimit:4;stroke-dasharray:none;stroke-opacity:1"
       d="M 82.769382,176.64309 102.67377,156.73874"
       id="path932"
       inkscape:connector-curvature="0" />
    <path
       style="fill:none;stroke:#000000;stroke-width:0.26458332;stroke-linecap:butt;stroke-linejoin:miter;stroke-miterlimit:4;stroke-dasharray:none;stroke-opacity:1"
       d="m 112.45121,176.6357 -9.8899,-9.88989"
       id="path934"
       inkscape:connector-curvature="0" />
    <path
       inkscape:connector-curvature="0"
       id="path936"
       d="m 92.732702,176.73396 9.987678,-9.98766"
       style="fill:none;stroke:#000000;stroke-width:0.26458332;stroke-linecap:butt;stroke-linejoin:miter;stroke-miterlimit:4;stroke-dasharray:none;stroke-opacity:1" />
    <path
       style="fill:none;stroke:#000000;stroke-width:0.26458332;stroke-linecap:butt;stroke-linejoin:miter;stroke-miterlimit:4;stroke-dasharray:none;stroke-opacity:1"
       d="M 122.46448,77.174782 102.60826,97.030963"
       id="path938"
       inkscape:connector-curvature="0" />
    <path
       inkscape:connector-curvature="0"
       id="path940"
       d="M 82.769382,77.126472 102.67377,97.030813"
       style="fill:none;stroke:#000000;stroke-width:0.26458332;stroke-linecap:butt;stroke-linejoin:miter;stroke-miterlimit:4;stroke-dasharray:none;stroke-opacity:1" />
    <path
       inkscape:connector-curvature="0"
       id="path942"
       d="m 112.45121,77.133862 -9.8899,9.889884"
       style="fill:none;stroke:#000000;stroke-width:0.26458332;stroke-linecap:butt;stroke-linejoin:miter;stroke-miterlimit:4;stroke-dasharray:none;stroke-opacity:1" />
    <path
       style="fill:none;stroke:#000000;stroke-width:0.26458332;stroke-linecap:butt;stroke-linejoin:miter;stroke-miterlimit:4;stroke-dasharray:none;stroke-opacity:1"
       d="m 92.732702,77.035602 9.987678,9.987654"
       id="path944"
       inkscape:connector-curvature="0" />
  </g>
  <defs
     id="defs1030">
    <marker
       id="DrawCurveMarker"
       orient="auto"
       refX="-8"
       refY="-2.41063"
       style="overflow:visible">
      <path
         d="m -6.55552,-2.41063 0,0 L -13.11104,0 c 1.0473,-1.42323 1.04126,-3.37047 0,-4.82126"
         style="fill:#000044; fill-rule:evenodd;stroke-width:0.62500000;stroke-linejoin:round;"
         id="path1027" />
    </marker>
  </defs>
  <defs
     id="defs1035">
    <marker
       id="DrawCurveMarker_r"
       orient="auto"
       refX="8"
       refY="-2.41063"
       style="overflow:visible">
      <path
         d="m 6.55552,-2.41063 0,0 L 13.11104,0 c -1.0473,-1.42323 -1.04126,-3.37047 0,-4.82126"
         style="fill:#000044; fill-rule:evenodd;stroke-width:0.62500000;stroke-linejoin:round;"
         id="path1032" />
    </marker>
  </defs>
</svg>
