<?xml version="1.0" encoding="UTF-8" standalone="no"?>
<!-- Created with Inkscape (http://www.inkscape.org/) -->

<svg
   xmlns:dc="http://purl.org/dc/elements/1.1/"
   xmlns:cc="http://creativecommons.org/ns#"
   xmlns:rdf="http://www.w3.org/1999/02/22-rdf-syntax-ns#"
   xmlns:svg="http://www.w3.org/2000/svg"
   xmlns="http://www.w3.org/2000/svg"
   xmlns:sodipodi="http://sodipodi.sourceforge.net/DTD/sodipodi-0.dtd"
   xmlns:inkscape="http://www.inkscape.org/namespaces/inkscape"
   width="200mm"
   height="140mm"
   viewBox="0 0 200 140"
   version="1.1"
   id="svg8"
   inkscape:version="0.92.3 (2405546, 2018-03-11)"
   sodipodi:docname="demo.svg">
  <sodipodi:namedview
     id="base"
     pagecolor="#ffffff"
     bordercolor="#666666"
     borderopacity="1.0"
     inkscape:pageopacity="0.0"
     inkscape:pageshadow="2"
     inkscape:zoom="1.050338"
     inkscape:cx="399.44525"
     inkscape:cy="212.44358"
     inkscape:document-units="mm"
     inkscape:current-layer="svg8"
     showgrid="false"
     inkscape:window-width="2560"
     inkscape:window-height="1356"
     inkscape:window-x="0"
     inkscape:window-y="28"
     inkscape:window-maximized="1" />
  <defs
     id="defs2" />
  <metadata
     id="metadata5">
    <rdf:RDF>
      <cc:Work
         rdf:about="">
        <dc:format>image/svg+xml</dc:format>
        <dc:type
           rdf:resource="http://purl.org/dc/dcmitype/StillImage" />
        <dc:title />
      </cc:Work>
    </rdf:RDF>
  </metadata>
  <g
     transform="translate(0,-157)"
     id="layer1"
     inkscape:groupmode="layer"
     inkscape:label="Layer 1">
    <g
       id="text817"
       style="font-style:normal;font-weight:normal;font-size:10.58333302px;line-height:1.25;font-family:sans-serif;letter-spacing:0px;word-spacing:0px;fill:#000000;fill-opacity:1;stroke:none;stroke-width:0.26458332"
       aria-label="LaserPecker L1 200mm x 140mm">
      <path
         id="path1033"
         style="text-align:center;text-anchor:middle;stroke-width:0.26458332"
         d="m 61.513866,213.70176 h 1.043864 v 6.83679 h 3.756877 v 0.8785 h -4.800741 z" />
      <path
         id="path1035"
         style="text-align:center;text-anchor:middle;stroke-width:0.26458332"
         d="m 69.993969,218.50767 q -1.152385,0 -1.596802,0.26355 -0.444417,0.26355 -0.444417,0.89917 0,0.50643 0.330729,0.80615 0.335897,0.29456 0.909505,0.29456 0.790649,0 1.266073,-0.55811 0.48059,-0.56327 0.48059,-1.49345 v -0.21187 z m 1.896525,-0.39274 v 3.30212 h -0.950847 v -0.8785 q -0.325561,0.5271 -0.811319,0.78032 -0.485759,0.24804 -1.188558,0.24804 -0.888835,0 -1.415935,-0.49609 -0.521932,-0.50126 -0.521932,-1.33842 0,-0.97668 0.651123,-1.47278 0.656291,-0.49609 1.95337,-0.49609 h 1.333251 v -0.093 q 0,-0.65629 -0.434082,-1.01286 -0.428914,-0.36173 -1.209228,-0.36173 -0.496094,0 -0.966349,0.11885 -0.470256,0.11886 -0.904338,0.35657 v -0.8785 q 0.521932,-0.20154 1.012858,-0.29972 0.490926,-0.10335 0.956014,-0.10335 1.255737,0 1.875855,0.65112 0.620117,0.65112 0.620117,1.97404 z" />
      <path
         id="path1037"
         style="text-align:center;text-anchor:middle;stroke-width:0.26458332"
         d="m 77.543895,215.79983 v 0.89917 q -0.403076,-0.20671 -0.837158,-0.31006 -0.434082,-0.10336 -0.89917,-0.10336 -0.707967,0 -1.064534,0.21704 -0.3514,0.21705 -0.3514,0.65113 0,0.33073 0.253214,0.52193 0.253215,0.18603 1.018026,0.35657 l 0.325562,0.0723 q 1.012858,0.21705 1.436604,0.61495 0.428915,0.39274 0.428915,1.10071 0,0.80615 -0.640788,1.27641 -0.63562,0.47025 -1.751831,0.47025 -0.465088,0 -0.971517,-0.093 -0.501261,-0.0878 -1.059367,-0.26872 v -0.98185 q 0.5271,0.27388 1.038697,0.41341 0.511596,0.13436 1.012858,0.13436 0.671793,0 1.033528,-0.22738 0.361735,-0.23254 0.361735,-0.65112 0,-0.38757 -0.26355,-0.59428 -0.258382,-0.20671 -1.142049,-0.39791 l -0.330729,-0.0775 q -0.883667,-0.18604 -1.276408,-0.56844 -0.392741,-0.38758 -0.392741,-1.05937 0,-0.81649 0.578776,-1.26091 0.578776,-0.44441 1.643311,-0.44441 0.5271,0 0.992187,0.0775 0.465088,0.0775 0.857829,0.23255 z" />
      <path
         id="path1039"
         style="text-align:center;text-anchor:middle;stroke-width:0.26458332"
         d="m 84.323842,218.28546 v 0.46509 h -4.371826 q 0.06201,0.98185 0.589111,1.49862 0.532268,0.51159 1.477946,0.51159 0.54777,0 1.059367,-0.13436 0.516764,-0.13435 1.023193,-0.40307 v 0.89917 q -0.511596,0.21704 -1.049031,0.33073 -0.537435,0.11368 -1.090373,0.11368 -1.384928,0 -2.196248,-0.80615 -0.806152,-0.80615 -0.806152,-2.18074 0,-1.4211 0.764811,-2.2531 0.769979,-0.83715 2.072225,-0.83715 1.167887,0 1.844848,0.75447 0.682129,0.74931 0.682129,2.04122 z m -0.950846,-0.27905 q -0.01033,-0.78032 -0.43925,-1.2454 -0.423747,-0.46509 -1.126546,-0.46509 -0.795817,0 -1.276408,0.44958 -0.475423,0.44959 -0.54777,1.26608 z" />
      <path
         id="path1041"
         style="text-align:center;text-anchor:middle;stroke-width:0.26458332"
         d="m 89.238271,216.51813 q -0.160197,-0.093 -0.3514,-0.13436 -0.186035,-0.0465 -0.413411,-0.0465 -0.806153,0 -1.240235,0.5271 -0.428914,0.52193 -0.428914,1.50378 v 3.04891 h -0.956014 v -5.78776 h 0.956014 v 0.89917 q 0.299723,-0.5271 0.780314,-0.78031 0.480591,-0.25838 1.167887,-0.25838 0.09819,0 0.217041,0.0155 0.118856,0.0103 0.26355,0.0362 z" />
      <path
         id="path1043"
         style="text-align:center;text-anchor:middle;stroke-width:0.26458332"
         d="m 91.331168,214.55959 v 2.89905 h 1.312581 q 0.728638,0 1.126546,-0.37724 0.397909,-0.37724 0.397909,-1.07487 0,-0.69246 -0.397909,-1.0697 -0.397908,-0.37724 -1.126546,-0.37724 z m -1.043864,-0.85783 h 2.356445 q 1.297078,0 1.958537,0.58911 0.666626,0.58395 0.666626,1.71566 0,1.14205 -0.666626,1.72599 -0.661459,0.58395 -1.958537,0.58395 h -1.312581 v 3.10058 h -1.043864 z" />
      <path
         id="path1045"
         style="text-align:center;text-anchor:middle;stroke-width:0.26458332"
         d="m 101.2117,218.28546 v 0.46509 h -4.371825 q 0.06201,0.98185 0.589112,1.49862 0.532267,0.51159 1.477946,0.51159 0.54777,0 1.059366,-0.13436 0.516761,-0.13435 1.023191,-0.40307 v 0.89917 q -0.51159,0.21704 -1.049029,0.33073 -0.537435,0.11368 -1.090372,0.11368 -1.384929,0 -2.196249,-0.80615 -0.806152,-0.80615 -0.806152,-2.18074 0,-1.4211 0.764811,-2.2531 0.769979,-0.83715 2.072225,-0.83715 1.167887,0 1.844846,0.75447 0.68213,0.74931 0.68213,2.04122 z m -0.95084,-0.27905 q -0.0103,-0.78032 -0.439255,-1.2454 -0.423746,-0.46509 -1.126546,-0.46509 -0.795817,0 -1.276408,0.44958 -0.475423,0.44959 -0.54777,1.26608 z" />
      <path
         id="path1047"
         style="text-align:center;text-anchor:middle;stroke-width:0.26458332"
         d="m 106.93745,215.8515 v 0.88884 q -0.40308,-0.22221 -0.81132,-0.33073 -0.40308,-0.11369 -0.81649,-0.11369 -0.92501,0 -1.4366,0.58911 -0.5116,0.58394 -0.5116,1.64331 0,1.05937 0.5116,1.64848 0.51159,0.58394 1.4366,0.58394 0.41341,0 0.81649,-0.10852 0.40824,-0.11369 0.81132,-0.33589 v 0.87849 q -0.39791,0.18604 -0.82682,0.27906 -0.42375,0.093 -0.90434,0.093 -1.30741,0 -2.07739,-0.82165 -0.76998,-0.82166 -0.76998,-2.21692 0,-1.41593 0.77514,-2.22725 0.78032,-0.81132 2.13424,-0.81132 0.43925,0 0.85783,0.093 0.41858,0.0878 0.81132,0.26872 z" />
      <path
         id="path1049"
         style="text-align:center;text-anchor:middle;stroke-width:0.26458332"
         d="m 108.56526,213.3762 h 0.95601 v 4.74906 l 2.83704,-2.49597 h 1.21439 l -3.06958,2.70785 3.19878,3.07991 h -1.24024 l -2.94039,-2.8267 v 2.8267 h -0.95601 z" />
      <path
         id="path1051"
         style="text-align:center;text-anchor:middle;stroke-width:0.26458332"
         d="m 119.31912,218.28546 v 0.46509 h -4.37182 q 0.062,0.98185 0.58911,1.49862 0.53227,0.51159 1.47794,0.51159 0.54777,0 1.05937,-0.13436 0.51677,-0.13435 1.02319,-0.40307 v 0.89917 q -0.51159,0.21704 -1.04903,0.33073 -0.53743,0.11368 -1.09037,0.11368 -1.38493,0 -2.19625,-0.80615 -0.80615,-0.80615 -0.80615,-2.18074 0,-1.4211 0.76481,-2.2531 0.76998,-0.83715 2.07223,-0.83715 1.16788,0 1.84484,0.75447 0.68213,0.74931 0.68213,2.04122 z m -0.95084,-0.27905 q -0.0103,-0.78032 -0.43925,-1.2454 -0.42375,-0.46509 -1.12655,-0.46509 -0.79582,0 -1.27641,0.44958 -0.47542,0.44959 -0.54777,1.26608 z" />
      <path
         id="path1053"
         style="text-align:center;text-anchor:middle;stroke-width:0.26458332"
         d="m 124.23355,216.51813 q -0.16019,-0.093 -0.3514,-0.13436 -0.18603,-0.0465 -0.41341,-0.0465 -0.80615,0 -1.24023,0.5271 -0.42892,0.52193 -0.42892,1.50378 v 3.04891 h -0.95601 v -5.78776 h 0.95601 v 0.89917 q 0.29973,-0.5271 0.78032,-0.78031 0.48059,-0.25838 1.16788,-0.25838 0.0982,0 0.21704,0.0155 0.11886,0.0103 0.26355,0.0362 z" />
      <path
         id="path1055"
         style="text-align:center;text-anchor:middle;stroke-width:0.26458332"
         d="m 128.65189,213.70176 h 1.04386 v 6.83679 h 3.75688 v 0.8785 h -4.80074 z" />
      <path
         id="path1057"
         style="text-align:center;text-anchor:middle;stroke-width:0.26458332"
         d="m 134.81689,220.53855 h 1.70532 v -5.88594 l -1.85518,0.37207 v -0.95085 l 1.84484,-0.37207 h 1.04387 v 6.83679 h 1.70532 v 0.8785 h -4.44417 z" />
      <path
         id="path1059"
         style="text-align:center;text-anchor:middle;stroke-width:0.26458332"
         d="m 55.043977,233.76772 h 3.643189 v 0.8785 H 53.78824 v -0.8785 q 0.594279,-0.61495 1.617472,-1.64848 1.028361,-1.03869 1.291911,-1.33842 0.501261,-0.56327 0.697632,-0.95084 0.201538,-0.39274 0.201538,-0.76998 0,-0.61495 -0.434082,-1.00253 -0.428915,-0.38757 -1.121379,-0.38757 -0.490926,0 -1.038696,0.17053 -0.542602,0.17054 -1.16272,0.51677 v -1.0542 q 0.630453,-0.25322 1.178223,-0.38241 0.54777,-0.12919 1.002523,-0.12919 1.198893,0 1.912028,0.59945 0.713134,0.59945 0.713134,1.60197 0,0.47542 -0.180867,0.90434 -0.1757,0.42374 -0.645955,1.00252 -0.129192,0.14986 -0.821656,0.86816 -0.692464,0.71314 -1.953369,1.99988 z" />
      <path
         id="path1061"
         style="text-align:center;text-anchor:middle;stroke-width:0.26458332"
         d="m 63.115836,227.61822 q -0.806153,0 -1.214397,0.79582 -0.403076,0.79065 -0.403076,2.38229 0,1.58646 0.403076,2.38228 0.408244,0.79065 1.214397,0.79065 0.81132,0 1.214396,-0.79065 0.408243,-0.79582 0.408243,-2.38228 0,-1.59164 -0.408243,-2.38229 -0.403076,-0.79582 -1.214396,-0.79582 z m 0,-0.82682 q 1.297078,0 1.979207,1.02836 0.687296,1.0232 0.687296,2.97657 0,1.9482 -0.687296,2.97656 -0.682129,1.02319 -1.979207,1.02319 -1.297079,0 -1.984375,-1.02319 -0.682129,-1.02836 -0.682129,-2.97656 0,-1.95337 0.682129,-2.97657 0.687296,-1.02836 1.984375,-1.02836 z" />
      <path
         id="path1063"
         style="text-align:center;text-anchor:middle;stroke-width:0.26458332"
         d="m 69.854442,227.61822 q -0.806152,0 -1.214396,0.79582 -0.403076,0.79065 -0.403076,2.38229 0,1.58646 0.403076,2.38228 0.408244,0.79065 1.214396,0.79065 0.81132,0 1.214396,-0.79065 0.408244,-0.79582 0.408244,-2.38228 0,-1.59164 -0.408244,-2.38229 -0.403076,-0.79582 -1.214396,-0.79582 z m 0,-0.82682 q 1.297078,0 1.979207,1.02836 0.687297,1.0232 0.687297,2.97657 0,1.9482 -0.687297,2.97656 -0.682129,1.02319 -1.979207,1.02319 -1.297078,0 -1.984375,-1.02319 -0.682129,-1.02836 -0.682129,-2.97656 0,-1.95337 0.682129,-2.97657 0.687297,-1.02836 1.984375,-1.02836 z" />
      <path
         id="path1065"
         style="text-align:center;text-anchor:middle;stroke-width:0.26458332"
         d="m 78.732454,229.9695 q 0.356567,-0.64079 0.852661,-0.94568 0.496093,-0.30489 1.167887,-0.30489 0.904338,0 1.395264,0.63562 0.490926,0.63046 0.490926,1.79834 v 3.49333 h -0.956014 v -3.46232 q 0,-0.83199 -0.294556,-1.23507 -0.294555,-0.40307 -0.89917,-0.40307 -0.738973,0 -1.167887,0.49092 -0.428914,0.49093 -0.428914,1.33842 v 3.27112 h -0.956014 v -3.46232 q 0,-0.83716 -0.294556,-1.23507 -0.294556,-0.40307 -0.909505,-0.40307 -0.728638,0 -1.157552,0.49609 -0.428915,0.49093 -0.428915,1.33325 v 3.27112 h -0.956014 v -5.78776 h 0.956014 v 0.89917 q 0.325562,-0.53227 0.780314,-0.78548 0.454753,-0.25322 1.080038,-0.25322 0.630452,0 1.069702,0.3204 0.444417,0.32039 0.656291,0.93017 z" />
      <path
         id="path1067"
         style="text-align:center;text-anchor:middle;stroke-width:0.26458332"
         d="m 89.047067,229.9695 q 0.356567,-0.64079 0.852661,-0.94568 0.496094,-0.30489 1.167887,-0.30489 0.904338,0 1.395264,0.63562 0.490926,0.63046 0.490926,1.79834 v 3.49333 h -0.956014 v -3.46232 q 0,-0.83199 -0.294555,-1.23507 -0.294556,-0.40307 -0.89917,-0.40307 -0.738973,0 -1.167888,0.49092 -0.428914,0.49093 -0.428914,1.33842 v 3.27112 H 88.25125 v -3.46232 q 0,-0.83716 -0.294556,-1.23507 -0.294555,-0.40307 -0.909505,-0.40307 -0.728638,0 -1.157552,0.49609 -0.428914,0.49093 -0.428914,1.33325 v 3.27112 h -0.956014 v -5.78776 h 0.956014 v 0.89917 q 0.325561,-0.53227 0.780314,-0.78548 0.454752,-0.25322 1.080037,-0.25322 0.630453,0 1.069702,0.3204 0.444418,0.32039 0.656291,0.93017 z" />
      <path
         id="path1069"
         style="text-align:center;text-anchor:middle;stroke-width:0.26458332"
         d="m 103.03588,228.85846 -2.0929,2.81636 2.20142,2.9714 h -1.12138 l -1.68465,-2.27376 -1.684655,2.27376 h -1.121379 l 2.247925,-3.02824 -2.056722,-2.75952 h 1.121378 l 1.534793,2.06189 1.53479,-2.06189 z" />
      <path
         id="path1071"
         style="text-align:center;text-anchor:middle;stroke-width:0.26458332"
         d="m 108.17251,233.76772 h 1.70533 v -5.88595 l -1.85519,0.37208 V 227.303 l 1.84485,-0.37207 h 1.04387 v 6.83679 h 1.70532 v 0.8785 h -4.44418 z" />
      <path
         id="path1073"
         style="text-align:center;text-anchor:middle;stroke-width:0.26458332"
         d="m 117.59829,227.84043 -2.63549,4.11862 h 2.63549 z m -0.27388,-0.9095 h 1.31258 v 5.02812 h 1.10071 v 0.86816 h -1.10071 v 1.81901 h -1.0387 v -1.81901 h -3.48299 v -1.00769 z" />
      <path
         id="path1075"
         style="text-align:center;text-anchor:middle;stroke-width:0.26458332"
         d="m 123.70128,227.61822 q -0.80615,0 -1.2144,0.79582 -0.40307,0.79065 -0.40307,2.38229 0,1.58646 0.40307,2.38228 0.40825,0.79065 1.2144,0.79065 0.81132,0 1.2144,-0.79065 0.40824,-0.79582 0.40824,-2.38228 0,-1.59164 -0.40824,-2.38229 -0.40308,-0.79582 -1.2144,-0.79582 z m 0,-0.82682 q 1.29708,0 1.97921,1.02836 0.68729,1.0232 0.68729,2.97657 0,1.9482 -0.68729,2.97656 -0.68213,1.02319 -1.97921,1.02319 -1.29708,0 -1.98437,-1.02319 -0.68213,-1.02836 -0.68213,-2.97656 0,-1.95337 0.68213,-2.97657 0.68729,-1.02836 1.98437,-1.02836 z" />
      <path
         id="path1077"
         style="text-align:center;text-anchor:middle;stroke-width:0.26458332"
         d="m 132.57929,229.9695 q 0.35657,-0.64079 0.85266,-0.94568 0.4961,-0.30489 1.16789,-0.30489 0.90434,0 1.39527,0.63562 0.49092,0.63046 0.49092,1.79834 v 3.49333 h -0.95601 v -3.46232 q 0,-0.83199 -0.29456,-1.23507 -0.29455,-0.40307 -0.89917,-0.40307 -0.73897,0 -1.16789,0.49092 -0.42891,0.49093 -0.42891,1.33842 v 3.27112 h -0.95601 v -3.46232 q 0,-0.83716 -0.29456,-1.23507 -0.29455,-0.40307 -0.9095,-0.40307 -0.72864,0 -1.15756,0.49609 -0.42891,0.49093 -0.42891,1.33325 v 3.27112 h -0.95601 v -5.78776 h 0.95601 v 0.89917 q 0.32556,-0.53227 0.78031,-0.78548 0.45476,-0.25322 1.08004,-0.25322 0.63045,0 1.0697,0.3204 0.44442,0.32039 0.65629,0.93017 z" />
      <path
         id="path1079"
         style="text-align:center;text-anchor:middle;stroke-width:0.26458332"
         d="m 142.89391,229.9695 q 0.35656,-0.64079 0.85266,-0.94568 0.49609,-0.30489 1.16789,-0.30489 0.90433,0 1.39526,0.63562 0.49093,0.63046 0.49093,1.79834 v 3.49333 h -0.95602 v -3.46232 q 0,-0.83199 -0.29455,-1.23507 -0.29456,-0.40307 -0.89917,-0.40307 -0.73898,0 -1.16789,0.49092 -0.42892,0.49093 -0.42892,1.33842 v 3.27112 h -0.95601 v -3.46232 q 0,-0.83716 -0.29456,-1.23507 -0.29455,-0.40307 -0.9095,-0.40307 -0.72864,0 -1.15755,0.49609 -0.42892,0.49093 -0.42892,1.33325 v 3.27112 h -0.95601 v -5.78776 h 0.95601 v 0.89917 q 0.32556,-0.53227 0.78032,-0.78548 0.45475,-0.25322 1.08003,-0.25322 0.63046,0 1.06971,0.3204 0.44441,0.32039 0.65629,0.93017 z" />
    </g>
    <g
       id="g1696">
      <g
         transform="matrix(0.99000102,0,0,1.0001155,2.5734286,-0.01866444)"
         style="stroke:#0b7cff;stroke-opacity:1"
         id="g876">
        <path
           inkscape:connector-curvature="0"
           id="path829"
           d="M 98.572746,161.58057 H 199.03506"
           style="fill:none;stroke:#0b7cff;stroke-width:0.18834753px;stroke-linecap:butt;stroke-linejoin:miter;stroke-opacity:1" />
        <path
           style="fill:none;stroke:#0b7cff;stroke-width:0.26458332px;stroke-linecap:butt;stroke-linejoin:miter;stroke-opacity:1"
           d="M 199.34378,161.58057 194.46237,164.1"
           id="path835"
           inkscape:connector-curvature="0" />
        <path
           inkscape:connector-curvature="0"
           id="path837"
           d="m 199.34378,161.61161 -4.88141,-2.51943"
           style="fill:none;stroke:#0b7cff;stroke-width:0.26458332px;stroke-linecap:butt;stroke-linejoin:miter;stroke-opacity:1" />
      </g>
      <g
         style="stroke:#0b7cff;stroke-opacity:1"
         id="g866">
        <path
           inkscape:connector-curvature="0"
           id="path841"
           d="m 186.83333,157.56787 2.51943,4.88141"
           style="fill:none;stroke:#0b7cff;stroke-width:0.26458332px;stroke-linecap:butt;stroke-linejoin:miter;stroke-opacity:1" />
        <path
           style="fill:none;stroke:#0b7cff;stroke-width:0.26458332px;stroke-linecap:butt;stroke-linejoin:miter;stroke-opacity:1"
           d="m 186.86437,157.56787 -2.51943,4.88141"
           id="path843"
           inkscape:connector-curvature="0" />
        <path
           inkscape:connector-curvature="0"
           id="path849"
           d="m 186.7169,157.39366 v 69.61339"
           style="fill:none;stroke:#0b7cff;stroke-width:0.15678507px;stroke-linecap:butt;stroke-linejoin:miter;stroke-opacity:1" />
      </g>
      <path
         id="path857"
         d="m 149.90616,193.3884 c 0.83687,0.51317 -0.27887,1.38127 -0.85293,1.39093 -1.55568,0.0262 -2.24674,-1.80878 -1.92894,-3.0968 0.56846,-2.30395 3.26334,-3.20403 5.34066,-2.46694 3.04856,1.08171 4.18357,4.73542 3.00495,7.58453 -1.57091,3.79742 -6.21342,5.17221 -9.8284,3.54296 -4.54908,-2.05024 -6.16548,-7.69418 -4.08096,-12.07227 2.52463,-5.30246 9.17647,-7.16143 14.31614,-4.61897 6.05692,2.9962 8.15904,10.65972 5.15697,16.56001 -3.46601,6.81211 -12.14361,9.15778 -18.80387,5.69498 -7.56782,-3.93466 -10.1573,-13.62795 -6.23299,-21.04775 4.40249,-8.32389 15.11261,-11.15738 23.29161,-6.77099 9.08025,4.86973 12.1579,16.59752 7.309,25.53548"
         style="fill:none;fill-rule:evenodd;stroke:#0b7cff;stroke-width:0.26458332;stroke-opacity:1"
         inkscape:connector-curvature="0" />
    </g>
    <g
       id="g4648">
      <g
         id="text827"
         style="font-style:normal;font-weight:normal;font-size:8.40926456px;line-height:1.25;font-family:sans-serif;letter-spacing:0px;word-spacing:0px;fill:#000000;fill-opacity:1;stroke:#009814;stroke-width:0.21023159;stroke-opacity:1"
         aria-label="/inkscape-laserpecker"
         transform="translate(-3.7041668)">
        <path
           inkscape:connector-curvature="0"
           id="path930"
           style="stroke:#009814;stroke-width:0.21023159;stroke-opacity:1"
           d="m 108.90805,284.73936 h 0.69803 l -2.13516,6.91055 h -0.69804 z" />
        <path
           inkscape:connector-curvature="0"
           id="path932"
           style="stroke:#009814;stroke-width:0.21023159;stroke-opacity:1"
           d="m 110.40677,286.27093 h 0.75552 v 4.59882 h -0.75552 z m 0,-1.79025 h 0.75552 v 0.95672 h -0.75552 z" />
        <path
           inkscape:connector-curvature="0"
           id="path934"
           style="stroke:#009814;stroke-width:0.21023159;stroke-opacity:1"
           d="m 116.56179,288.09404 v 2.77571 h -0.75552 v -2.75108 q 0,-0.65286 -0.25458,-0.97725 -0.25457,-0.32438 -0.76373,-0.32438 -0.61181,0 -0.96493,0.39008 -0.35312,0.39008 -0.35312,1.06348 v 2.59915 h -0.75963 v -4.59882 h 0.75963 v 0.71446 q 0.271,-0.41471 0.63644,-0.62002 0.36955,-0.2053 0.84996,-0.2053 0.79248,0 1.19898,0.49273 0.4065,0.48862 0.4065,1.44124 z" />
        <path
           inkscape:connector-curvature="0"
           id="path936"
           style="stroke:#009814;stroke-width:0.21023159;stroke-opacity:1"
           d="m 118.04819,284.48068 h 0.75963 v 3.77349 l 2.25424,-1.98324 h 0.96493 l -2.43901,2.15159 2.54166,2.44723 h -0.98546 l -2.33636,-2.24603 v 2.24603 h -0.75963 z" />
        <path
           inkscape:connector-curvature="0"
           id="path938"
           style="stroke:#009814;stroke-width:0.21023159;stroke-opacity:1"
           d="m 125.88671,286.40644 v 0.71445 q -0.32027,-0.16424 -0.66518,-0.24636 -0.34492,-0.0821 -0.71446,-0.0821 -0.56254,0 -0.84586,0.17245 -0.27921,0.17246 -0.27921,0.51737 0,0.26279 0.2012,0.41471 0.2012,0.14782 0.8089,0.28332 l 0.25868,0.0575 q 0.80479,0.17246 1.14149,0.48862 0.34081,0.31207 0.34081,0.8746 0,0.64055 -0.50916,1.0142 -0.50505,0.37366 -1.39196,0.37366 -0.36955,0 -0.77194,-0.0739 -0.3983,-0.0698 -0.84175,-0.21352 v -0.78015 q 0.41882,0.21762 0.82532,0.32848 0.4065,0.10676 0.80479,0.10676 0.53379,0 0.82122,-0.18067 0.28743,-0.18477 0.28743,-0.51736 0,-0.30796 -0.20941,-0.4722 -0.20531,-0.16425 -0.90745,-0.31617 l -0.26279,-0.0616 q -0.70214,-0.14782 -1.0142,-0.45167 -0.31206,-0.30796 -0.31206,-0.84175 0,-0.64876 0.45988,-1.00189 0.45988,-0.35312 1.30573,-0.35312 0.41882,0 0.78837,0.0616 0.36955,0.0616 0.68161,0.18478 z" />
        <path
           inkscape:connector-curvature="0"
           id="path940"
           style="stroke:#009814;stroke-width:0.21023159;stroke-opacity:1"
           d="m 130.64977,286.4475 v 0.70624 q -0.32027,-0.17656 -0.64465,-0.26279 -0.32028,-0.0903 -0.64876,-0.0903 -0.73499,0 -1.1415,0.46809 -0.4065,0.46399 -0.4065,1.30574 0,0.84175 0.4065,1.30984 0.40651,0.46399 1.1415,0.46399 0.32848,0 0.64876,-0.0862 0.32438,-0.0903 0.64465,-0.2669 v 0.69804 q -0.31617,0.14782 -0.65697,0.22173 -0.3367,0.0739 -0.71857,0.0739 -1.03884,0 -1.65064,-0.65287 -0.61181,-0.65287 -0.61181,-1.76151 0,-1.12507 0.61591,-1.76972 0.62002,-0.64466 1.69582,-0.64466 0.34901,0 0.68161,0.0739 0.33259,0.0698 0.64465,0.21352 z" />
        <path
           inkscape:connector-curvature="0"
           id="path942"
           style="stroke:#009814;stroke-width:0.21023159;stroke-opacity:1"
           d="m 134.06193,288.55802 q -0.91566,0 -1.26878,0.20941 -0.35312,0.20942 -0.35312,0.71446 0,0.4024 0.26278,0.64055 0.2669,0.23405 0.72268,0.23405 0.62823,0 1.00599,-0.44346 0.38186,-0.44756 0.38186,-1.18666 v -0.16835 z m 1.50693,-0.31206 v 2.62379 h -0.75552 v -0.69803 q -0.25868,0.41882 -0.64465,0.62002 -0.38597,0.19709 -0.9444,0.19709 -0.70625,0 -1.12507,-0.39419 -0.41471,-0.39829 -0.41471,-1.06347 0,-0.77605 0.51736,-1.17024 0.52148,-0.39418 1.5521,-0.39418 h 1.05937 v -0.0739 q 0,-0.52147 -0.34491,-0.80479 -0.3408,-0.28743 -0.96082,-0.28743 -0.39419,0 -0.76784,0.0944 -0.37365,0.0944 -0.71857,0.28332 v -0.69804 q 0.41472,-0.16013 0.8048,-0.23815 0.39008,-0.0821 0.75962,-0.0821 0.99778,0 1.49051,0.51737 0.49273,0.51736 0.49273,1.56852 z" />
        <path
           inkscape:connector-curvature="0"
           id="path944"
           style="stroke:#009814;stroke-width:0.21023159;stroke-opacity:1"
           d="m 137.86006,290.17993 v 2.43901 h -0.75963 v -6.34801 h 0.75963 v 0.69804 q 0.23815,-0.41061 0.59949,-0.6077 0.36544,-0.2012 0.87049,-0.2012 0.83764,0 1.35911,0.66519 0.52558,0.66518 0.52558,1.74919 0,1.08401 -0.52558,1.74919 -0.52147,0.66519 -1.35911,0.66519 -0.50505,0 -0.87049,-0.19709 -0.36134,-0.2012 -0.59949,-0.61181 z m 2.57041,-1.60548 q 0,-0.83354 -0.34491,-1.30574 -0.34081,-0.4763 -0.9403,-0.4763 -0.59949,0 -0.9444,0.4763 -0.3408,0.4722 -0.3408,1.30574 0,0.83353 0.3408,1.30984 0.34491,0.4722 0.9444,0.4722 0.59949,0 0.9403,-0.4722 0.34491,-0.47631 0.34491,-1.30984 z" />
        <path
           inkscape:connector-curvature="0"
           id="path946"
           style="stroke:#009814;stroke-width:0.21023159;stroke-opacity:1"
           d="m 146.40072,288.38146 v 0.36955 h -3.47375 q 0.0493,0.78016 0.46809,1.19077 0.42293,0.4065 1.17434,0.4065 0.43525,0 0.84175,-0.10676 0.41061,-0.10676 0.81301,-0.32027 v 0.71445 q -0.40651,0.17246 -0.83354,0.26279 -0.42703,0.0903 -0.86638,0.0903 -1.10043,0 -1.74509,-0.64055 -0.64055,-0.64055 -0.64055,-1.73277 0,-1.12917 0.6077,-1.79025 0.61181,-0.66519 1.64654,-0.66519 0.92798,0 1.46588,0.59949 0.542,0.59538 0.542,1.6219 z m -0.75552,-0.22173 q -0.008,-0.62001 -0.34902,-0.98956 -0.3367,-0.36955 -0.89512,-0.36955 -0.63234,0 -1.01421,0.35723 -0.37776,0.35723 -0.43524,1.00599 z" />
        <path
           inkscape:connector-curvature="0"
           id="path948"
           style="stroke:#009814;stroke-width:0.21023159;stroke-opacity:1"
           d="m 147.25889,288.22954 h 2.21318 v 0.6734 h -2.21318 z" />
        <path
           inkscape:connector-curvature="0"
           id="path950"
           style="stroke:#009814;stroke-width:0.21023159;stroke-opacity:1"
           d="m 150.67926,284.48068 h 0.75552 v 6.38907 h -0.75552 z" />
        <path
           inkscape:connector-curvature="0"
           id="path952"
           style="stroke:#009814;stroke-width:0.21023159;stroke-opacity:1"
           d="m 155.10152,288.55802 q -0.91566,0 -1.26878,0.20941 -0.35313,0.20942 -0.35313,0.71446 0,0.4024 0.26279,0.64055 0.2669,0.23405 0.72267,0.23405 0.62823,0 1.00599,-0.44346 0.38187,-0.44756 0.38187,-1.18666 v -0.16835 z m 1.50693,-0.31206 v 2.62379 h -0.75552 v -0.69803 q -0.25868,0.41882 -0.64466,0.62002 -0.38597,0.19709 -0.9444,0.19709 -0.70624,0 -1.12506,-0.39419 -0.41472,-0.39829 -0.41472,-1.06347 0,-0.77605 0.51737,-1.17024 0.52147,-0.39418 1.5521,-0.39418 h 1.05937 v -0.0739 q 0,-0.52147 -0.34491,-0.80479 -0.34081,-0.28743 -0.96083,-0.28743 -0.39418,0 -0.76783,0.0944 -0.37366,0.0944 -0.71857,0.28332 v -0.69804 q 0.41472,-0.16013 0.80479,-0.23815 0.39008,-0.0821 0.75963,-0.0821 0.99778,0 1.49051,0.51737 0.49273,0.51736 0.49273,1.56852 z" />
        <path
           inkscape:connector-curvature="0"
           id="path954"
           style="stroke:#009814;stroke-width:0.21023159;stroke-opacity:1"
           d="m 161.10051,286.40644 v 0.71445 q -0.32028,-0.16424 -0.66519,-0.24636 -0.34491,-0.0821 -0.71446,-0.0821 -0.56253,0 -0.84585,0.17245 -0.27922,0.17246 -0.27922,0.51737 0,0.26279 0.2012,0.41471 0.2012,0.14782 0.8089,0.28332 l 0.25868,0.0575 q 0.8048,0.17246 1.1415,0.48862 0.3408,0.31207 0.3408,0.8746 0,0.64055 -0.50915,1.0142 -0.50505,0.37366 -1.39197,0.37366 -0.36954,0 -0.77194,-0.0739 -0.39829,-0.0698 -0.84175,-0.21352 v -0.78015 q 0.41882,0.21762 0.82532,0.32848 0.40651,0.10676 0.8048,0.10676 0.53379,0 0.82121,-0.18067 0.28743,-0.18477 0.28743,-0.51736 0,-0.30796 -0.20941,-0.4722 -0.2053,-0.16425 -0.90744,-0.31617 l -0.26279,-0.0616 q -0.70215,-0.14782 -1.01421,-0.45167 -0.31206,-0.30796 -0.31206,-0.84175 0,-0.64876 0.45988,-1.00189 0.45988,-0.35312 1.30574,-0.35312 0.41882,0 0.78837,0.0616 0.36954,0.0616 0.68161,0.18478 z" />
        <path
           inkscape:connector-curvature="0"
           id="path956"
           style="stroke:#009814;stroke-width:0.21023159;stroke-opacity:1"
           d="m 166.48769,288.38146 v 0.36955 h -3.47374 q 0.0493,0.78016 0.46809,1.19077 0.42293,0.4065 1.17434,0.4065 0.43524,0 0.84175,-0.10676 0.41061,-0.10676 0.813,-0.32027 v 0.71445 q -0.4065,0.17246 -0.83353,0.26279 -0.42704,0.0903 -0.86639,0.0903 -1.10043,0 -1.74508,-0.64055 -0.64055,-0.64055 -0.64055,-1.73277 0,-1.12917 0.6077,-1.79025 0.6118,-0.66519 1.64654,-0.66519 0.92797,0 1.46587,0.59949 0.542,0.59538 0.542,1.6219 z m -0.75552,-0.22173 q -0.008,-0.62001 -0.34901,-0.98956 -0.3367,-0.36955 -0.89513,-0.36955 -0.63234,0 -1.0142,0.35723 -0.37776,0.35723 -0.43525,1.00599 z" />
        <path
           inkscape:connector-curvature="0"
           id="path958"
           style="stroke:#009814;stroke-width:0.21023159;stroke-opacity:1"
           d="m 170.39258,286.97718 q -0.12729,-0.0739 -0.27921,-0.10676 -0.14782,-0.037 -0.32849,-0.037 -0.64055,0 -0.98546,0.41882 -0.34081,0.41471 -0.34081,1.19487 v 2.42259 h -0.75962 v -4.59882 h 0.75962 v 0.71446 q 0.23816,-0.41882 0.62002,-0.62002 0.38187,-0.2053 0.92798,-0.2053 0.078,0 0.17246,0.0123 0.0944,0.008 0.20941,0.0287 z" />
        <path
           inkscape:connector-curvature="0"
           id="path960"
           style="stroke:#009814;stroke-width:0.21023159;stroke-opacity:1"
           d="m 171.92415,290.17993 v 2.43901 h -0.75962 v -6.34801 h 0.75962 v 0.69804 q 0.23816,-0.41061 0.59949,-0.6077 0.36544,-0.2012 0.87049,-0.2012 0.83764,0 1.35912,0.66519 0.52558,0.66518 0.52558,1.74919 0,1.08401 -0.52558,1.74919 -0.52148,0.66519 -1.35912,0.66519 -0.50505,0 -0.87049,-0.19709 -0.36133,-0.2012 -0.59949,-0.61181 z m 2.57041,-1.60548 q 0,-0.83354 -0.34491,-1.30574 -0.3408,-0.4763 -0.94029,-0.4763 -0.59949,0 -0.9444,0.4763 -0.34081,0.4722 -0.34081,1.30574 0,0.83353 0.34081,1.30984 0.34491,0.4722 0.9444,0.4722 0.59949,0 0.94029,-0.4722 0.34491,-0.47631 0.34491,-1.30984 z" />
        <path
           inkscape:connector-curvature="0"
           id="path962"
           style="stroke:#009814;stroke-width:0.21023159;stroke-opacity:1"
           d="m 180.46481,288.38146 v 0.36955 h -3.47375 q 0.0493,0.78016 0.4681,1.19077 0.42293,0.4065 1.17434,0.4065 0.43524,0 0.84175,-0.10676 0.41061,-0.10676 0.813,-0.32027 v 0.71445 q -0.4065,0.17246 -0.83353,0.26279 -0.42704,0.0903 -0.86639,0.0903 -1.10043,0 -1.74508,-0.64055 -0.64055,-0.64055 -0.64055,-1.73277 0,-1.12917 0.6077,-1.79025 0.6118,-0.66519 1.64654,-0.66519 0.92797,0 1.46587,0.59949 0.542,0.59538 0.542,1.6219 z m -0.75552,-0.22173 q -0.008,-0.62001 -0.34901,-0.98956 -0.3367,-0.36955 -0.89513,-0.36955 -0.63234,0 -1.0142,0.35723 -0.37776,0.35723 -0.43525,1.00599 z" />
        <path
           inkscape:connector-curvature="0"
           id="path964"
           style="stroke:#009814;stroke-width:0.21023159;stroke-opacity:1"
           d="m 185.01436,286.4475 v 0.70624 q -0.32028,-0.17656 -0.64466,-0.26279 -0.32027,-0.0903 -0.64876,-0.0903 -0.73499,0 -1.14149,0.46809 -0.40651,0.46399 -0.40651,1.30574 0,0.84175 0.40651,1.30984 0.4065,0.46399 1.14149,0.46399 0.32849,0 0.64876,-0.0862 0.32438,-0.0903 0.64466,-0.2669 v 0.69804 q -0.31617,0.14782 -0.65698,0.22173 -0.3367,0.0739 -0.71856,0.0739 -1.03884,0 -1.65065,-0.65287 -0.61181,-0.65287 -0.61181,-1.76151 0,-1.12507 0.61592,-1.76972 0.62002,-0.64466 1.69581,-0.64466 0.34902,0 0.68161,0.0739 0.33259,0.0698 0.64466,0.21352 z" />
        <path
           inkscape:connector-curvature="0"
           id="path966"
           style="stroke:#009814;stroke-width:0.21023159;stroke-opacity:1"
           d="m 186.30777,284.48068 h 0.75962 v 3.77349 l 2.25425,-1.98324 h 0.96493 l -2.43902,2.15159 2.54167,2.44723 h -0.98546 l -2.33637,-2.24603 v 2.24603 h -0.75962 z" />
        <path
           inkscape:connector-curvature="0"
           id="path968"
           style="stroke:#009814;stroke-width:0.21023159;stroke-opacity:1"
           d="m 194.85254,288.38146 v 0.36955 h -3.47375 q 0.0493,0.78016 0.46809,1.19077 0.42293,0.4065 1.17435,0.4065 0.43524,0 0.84174,-0.10676 0.41061,-0.10676 0.81301,-0.32027 v 0.71445 q -0.4065,0.17246 -0.83354,0.26279 -0.42703,0.0903 -0.86638,0.0903 -1.10043,0 -1.74509,-0.64055 -0.64055,-0.64055 -0.64055,-1.73277 0,-1.12917 0.6077,-1.79025 0.61181,-0.66519 1.64654,-0.66519 0.92798,0 1.46588,0.59949 0.542,0.59538 0.542,1.6219 z m -0.75552,-0.22173 q -0.008,-0.62001 -0.34902,-0.98956 -0.3367,-0.36955 -0.89512,-0.36955 -0.63234,0 -1.01421,0.35723 -0.37776,0.35723 -0.43524,1.00599 z" />
        <path
           inkscape:connector-curvature="0"
           id="path970"
           style="stroke:#009814;stroke-width:0.21023159;stroke-opacity:1"
           d="m 198.75743,286.97718 q -0.12729,-0.0739 -0.27922,-0.10676 -0.14782,-0.037 -0.32848,-0.037 -0.64055,0 -0.98546,0.41882 -0.34081,0.41471 -0.34081,1.19487 v 2.42259 h -0.75963 v -4.59882 h 0.75963 v 0.71446 q 0.23815,-0.41882 0.62002,-0.62002 0.38187,-0.2053 0.92797,-0.2053 0.078,0 0.17246,0.0123 0.0944,0.008 0.20941,0.0287 z" />
      </g>
      <g
         style="stroke:#009814;stroke-opacity:1"
         id="g871">
        <path
           style="fill:none;stroke:#009814;stroke-width:0.15765341px;stroke-linecap:butt;stroke-linejoin:miter;stroke-opacity:1"
           d="m 186.7169,227.00705 v 70.38661"
           id="path839"
           inkscape:connector-curvature="0" />
        <path
           style="fill:none;stroke:#009814;stroke-width:0.26458332px;stroke-linecap:butt;stroke-linejoin:miter;stroke-opacity:1"
           d="m 186.83333,296.85768 2.51943,-4.88141"
           id="path845"
           inkscape:connector-curvature="0" />
        <path
           inkscape:connector-curvature="0"
           id="path847"
           d="m 186.86437,296.85768 -2.51943,-4.88141"
           style="fill:none;stroke:#009814;stroke-width:0.26458332px;stroke-linecap:butt;stroke-linejoin:miter;stroke-opacity:1" />
      </g>
      <path
         inkscape:connector-curvature="0"
         id="path859"
         d="m 149.90616,262.04291 c 0.83687,0.51317 -0.27887,1.38127 -0.85293,1.39093 -1.55568,0.0262 -2.24674,-1.80878 -1.92894,-3.09679 0.56846,-2.30396 3.26334,-3.20404 5.34066,-2.46695 3.04856,1.08171 4.18357,4.73542 3.00495,7.58453 -1.57091,3.79742 -6.21342,5.17221 -9.8284,3.54296 -4.54908,-2.05024 -6.16548,-7.69418 -4.08096,-12.07227 2.52463,-5.30246 9.17647,-7.16143 14.31614,-4.61897 6.05692,2.9962 8.15904,10.65972 5.15697,16.56001 -3.46601,6.81211 -12.14361,9.15778 -18.80387,5.69498 -7.56782,-3.93466 -10.1573,-13.62794 -6.23299,-21.04775 4.40249,-8.32389 15.11261,-11.15738 23.29161,-6.77099 9.08025,4.86973 12.1579,16.59752 7.309,25.53548"
         style="fill:none;fill-rule:evenodd;stroke:#009814;stroke-width:0.26458332;stroke-opacity:1" />
    </g>
    <g
       id="g4680">
      <g
         id="text823"
         style="font-style:normal;font-weight:normal;font-size:8.40926456px;line-height:1.25;font-family:sans-serif;letter-spacing:0px;word-spacing:0px;fill:#000000;fill-opacity:1;stroke:#d2bd00;stroke-width:0.21023154;stroke-opacity:1"
         aria-label="https://github.com/yy502"
         transform="matrix(0.94730651,0,0,1.0006812,1.8968648,-0.19657442)">
        <path
           inkscape:connector-curvature="0"
           id="path983"
           style="stroke:#d2bd00;stroke-width:0.21023154;stroke-opacity:1"
           d="m 5.0269273,288.09404 v 2.77571 H 4.2714075 v -2.75108 q 0,-0.65286 -0.2545774,-0.97725 -0.2545773,-0.32438 -0.763732,-0.32438 -0.6118069,0 -0.9649303,0.39008 -0.3531234,0.39008 -0.3531234,1.06348 v 2.59915 H 1.1754185 v -6.38907 h 0.7596259 v 2.50471 q 0.2710017,-0.41471 0.6364434,-0.62002 0.3695477,-0.2053 0.8499598,-0.2053 0.7924747,0 1.1989772,0.49273 0.4065025,0.48862 0.4065025,1.44124 z" />
        <path
           inkscape:connector-curvature="0"
           id="path985"
           style="stroke:#d2bd00;stroke-width:0.21023154;stroke-opacity:1"
           d="m 7.2893808,284.9652 v 1.30573 h 1.5562067 v 0.58717 H 7.2893808 v 2.49651 q 0,0.56253 0.1519252,0.72267 0.1560313,0.16013 0.6282312,0.16013 h 0.7760503 v 0.63234 H 8.0695372 q -0.8745963,0 -1.2071893,-0.32438 -0.332593,-0.32849 -0.332593,-1.19076 V 286.8581 H 5.9754332 v -0.58717 h 0.5543217 v -1.30573 z" />
        <path
           inkscape:connector-curvature="0"
           id="path987"
           style="stroke:#d2bd00;stroke-width:0.21023154;stroke-opacity:1"
           d="m 10.590675,284.9652 v 1.30573 h 1.556206 v 0.58717 h -1.556206 v 2.49651 q 0,0.56253 0.151925,0.72267 0.156031,0.16013 0.628231,0.16013 h 0.77605 v 0.63234 h -0.77605 q -0.874596,0 -1.207189,-0.32438 -0.3325933,-0.32849 -0.3325933,-1.19076 V 286.8581 H 9.2767271 v -0.58717 h 0.5543216 v -1.30573 z" />
        <path
           inkscape:connector-curvature="0"
           id="path989"
           style="stroke:#d2bd00;stroke-width:0.21023154;stroke-opacity:1"
           d="m 13.875543,290.17993 v 2.43901 h -0.759626 v -6.34801 h 0.759626 v 0.69804 q 0.238153,-0.41061 0.599488,-0.6077 0.365442,-0.2012 0.870491,-0.2012 0.837641,0 1.359114,0.66519 0.525579,0.66518 0.525579,1.74919 0,1.08401 -0.525579,1.74919 -0.521473,0.66519 -1.359114,0.66519 -0.505049,0 -0.870491,-0.19709 -0.361335,-0.2012 -0.599488,-0.61181 z m 2.57041,-1.60548 q 0,-0.83354 -0.344912,-1.30574 -0.340805,-0.4763 -0.940293,-0.4763 -0.599489,0 -0.9444,0.4763 -0.340805,0.4722 -0.340805,1.30574 0,0.83353 0.340805,1.30984 0.344911,0.4722 0.9444,0.4722 0.599488,0 0.940293,-0.4722 0.344912,-0.47631 0.344912,-1.30984 z" />
        <path
           inkscape:connector-curvature="0"
           id="path991"
           style="stroke:#d2bd00;stroke-width:0.21023154;stroke-opacity:1"
           d="m 21.414318,286.40644 v 0.71445 q -0.320274,-0.16424 -0.665185,-0.24636 -0.344912,-0.0821 -0.714459,-0.0821 -0.562534,0 -0.845854,0.17245 -0.279214,0.17246 -0.279214,0.51737 0,0.26279 0.201198,0.41471 0.201198,0.14782 0.808899,0.28332 l 0.258684,0.0575 q 0.804792,0.17246 1.141491,0.48862 0.340806,0.31207 0.340806,0.8746 0,0.64055 -0.509155,1.0142 -0.505049,0.37366 -1.391963,0.37366 -0.369548,0 -0.771944,-0.0739 -0.398291,-0.0698 -0.841748,-0.21352 v -0.78015 q 0.418821,0.21762 0.825323,0.32848 0.406503,0.10676 0.804793,0.10676 0.533791,0 0.821217,-0.18067 0.287426,-0.18477 0.287426,-0.51736 0,-0.30796 -0.20941,-0.4722 -0.205304,-0.16425 -0.907445,-0.31617 l -0.26279,-0.0616 q -0.70214,-0.14782 -1.014203,-0.45167 -0.312062,-0.30796 -0.312062,-0.84175 0,-0.64876 0.459881,-1.00189 0.459882,-0.35312 1.305736,-0.35312 0.41882,0 0.788368,0.0616 0.369548,0.0616 0.68161,0.18478 z" />
        <path
           inkscape:connector-curvature="0"
           id="path993"
           style="stroke:#d2bd00;stroke-width:0.21023154;stroke-opacity:1"
           d="m 23.060859,289.82681 h 0.866384 v 1.04294 h -0.866384 z m 0,-3.3054 h 0.866384 v 1.04294 h -0.866384 z" />
        <path
           inkscape:connector-curvature="0"
           id="path995"
           style="stroke:#d2bd00;stroke-width:0.21023154;stroke-opacity:1"
           d="m 27.051974,284.73936 h 0.698035 l -2.135165,6.91055 H 24.91681 Z" />
        <path
           inkscape:connector-curvature="0"
           id="path997"
           style="stroke:#d2bd00;stroke-width:0.21023154;stroke-opacity:1"
           d="m 29.893386,284.73936 h 0.698035 l -2.135165,6.91055 h -0.698035 z" />
        <path
           inkscape:connector-curvature="0"
           id="path999"
           style="stroke:#d2bd00;stroke-width:0.21023154;stroke-opacity:1"
           d="m 34.418293,288.51696 q 0,-0.82121 -0.340805,-1.27288 -0.336699,-0.45167 -0.948506,-0.45167 -0.607701,0 -0.948506,0.45167 -0.336699,0.45167 -0.336699,1.27288 0,0.81711 0.336699,1.26878 0.340805,0.45167 0.948506,0.45167 0.611807,0 0.948506,-0.45167 0.340805,-0.45167 0.340805,-1.26878 z m 0.75552,1.78204 q 0,1.17435 -0.521473,1.74509 -0.521473,0.57485 -1.597268,0.57485 -0.39829,0 -0.751413,-0.0616 -0.353124,-0.0575 -0.685717,-0.18067 v -0.73498 q 0.332593,0.18066 0.656974,0.26689 0.324381,0.0862 0.66108,0.0862 0.743201,0 1.112749,-0.39008 0.369548,-0.38597 0.369548,-1.17023 v -0.37366 q -0.234047,0.4065 -0.599489,0.6077 -0.365441,0.2012 -0.874596,0.2012 -0.845854,0 -1.363221,-0.64465 -0.517367,-0.64466 -0.517367,-1.70814 0,-1.06758 0.517367,-1.71223 0.517367,-0.64466 1.363221,-0.64466 0.509155,0 0.874596,0.2012 0.365442,0.2012 0.599489,0.6077 v -0.69804 h 0.75552 z" />
        <path
           inkscape:connector-curvature="0"
           id="path1001"
           style="stroke:#d2bd00;stroke-width:0.21023154;stroke-opacity:1"
           d="m 36.730017,286.27093 h 0.75552 v 4.59882 h -0.75552 z m 0,-1.79025 h 0.75552 v 0.95672 h -0.75552 z" />
        <path
           inkscape:connector-curvature="0"
           id="path1003"
           style="stroke:#d2bd00;stroke-width:0.21023154;stroke-opacity:1"
           d="m 39.809585,284.9652 v 1.30573 h 1.556207 v 0.58717 h -1.556207 v 2.49651 q 0,0.56253 0.151925,0.72267 0.156031,0.16013 0.628231,0.16013 h 0.776051 v 0.63234 h -0.776051 q -0.874596,0 -1.207189,-0.32438 -0.332593,-0.32849 -0.332593,-1.19076 v -2.49651 h -0.554322 v -0.58717 h 0.554322 v -1.30573 z" />
        <path
           inkscape:connector-curvature="0"
           id="path1005"
           style="stroke:#d2bd00;stroke-width:0.21023154;stroke-opacity:1"
           d="m 46.186336,288.09404 v 2.77571 h -0.75552 v -2.75108 q 0,-0.65286 -0.254577,-0.97725 -0.254578,-0.32438 -0.763732,-0.32438 -0.611807,0 -0.964931,0.39008 -0.353123,0.39008 -0.353123,1.06348 v 2.59915 h -0.759626 v -6.38907 h 0.759626 v 2.50471 q 0.271002,-0.41471 0.636443,-0.62002 0.369548,-0.2053 0.84996,-0.2053 0.792475,0 1.198977,0.49273 0.406503,0.48862 0.406503,1.44124 z" />
        <path
           inkscape:connector-curvature="0"
           id="path1007"
           style="stroke:#d2bd00;stroke-width:0.21023154;stroke-opacity:1"
           d="m 47.623468,289.05486 v -2.78393 h 0.755519 v 2.75519 q 0,0.65287 0.254578,0.98135 0.254577,0.32438 0.763732,0.32438 0.611807,0 0.96493,-0.39007 0.35723,-0.39008 0.35723,-1.06348 v -2.60737 h 0.755519 v 4.59882 h -0.755519 v -0.70625 q -0.275108,0.41882 -0.64055,0.62413 -0.361336,0.2012 -0.841748,0.2012 -0.792474,0 -1.203083,-0.49273 -0.410608,-0.49273 -0.410608,-1.44124 z m 1.901117,-2.89479 z" />
        <path
           inkscape:connector-curvature="0"
           id="path1009"
           style="stroke:#d2bd00;stroke-width:0.21023154;stroke-opacity:1"
           d="m 56.340686,288.57445 q 0,-0.83354 -0.344911,-1.30574 -0.340805,-0.4763 -0.940294,-0.4763 -0.599488,0 -0.9444,0.4763 -0.340805,0.4722 -0.340805,1.30574 0,0.83353 0.340805,1.30984 0.344912,0.4722 0.9444,0.4722 0.599489,0 0.940294,-0.4722 0.344911,-0.47631 0.344911,-1.30984 z m -2.57041,-1.60548 q 0.238153,-0.41061 0.599489,-0.6077 0.365441,-0.2012 0.87049,-0.2012 0.837642,0 1.359115,0.66519 0.525579,0.66518 0.525579,1.74919 0,1.08401 -0.525579,1.74919 -0.521473,0.66519 -1.359115,0.66519 -0.505049,0 -0.87049,-0.19709 -0.361336,-0.2012 -0.599489,-0.61181 v 0.68982 H 53.01065 v -6.38907 h 0.759626 z" />
        <path
           inkscape:connector-curvature="0"
           id="path1011"
           style="stroke:#d2bd00;stroke-width:0.21023154;stroke-opacity:1"
           d="m 58.484065,289.82681 h 0.866384 v 1.04294 h -0.866384 z" />
        <path
           inkscape:connector-curvature="0"
           id="path1013"
           style="stroke:#d2bd00;stroke-width:0.21023154;stroke-opacity:1"
           d="m 64.363978,286.4475 v 0.70624 q -0.320275,-0.17656 -0.644656,-0.26279 -0.320274,-0.0903 -0.648761,-0.0903 -0.73499,0 -1.141492,0.46809 -0.406503,0.46399 -0.406503,1.30574 0,0.84175 0.406503,1.30984 0.406502,0.46399 1.141492,0.46399 0.328487,0 0.648761,-0.0862 0.324381,-0.0903 0.644656,-0.2669 v 0.69804 q -0.316169,0.14782 -0.656974,0.22173 -0.336699,0.0739 -0.718565,0.0739 -1.03884,0 -1.650647,-0.65287 -0.611807,-0.65287 -0.611807,-1.76151 0,-1.12507 0.615913,-1.76972 0.620019,-0.64466 1.695814,-0.64466 0.349017,0 0.68161,0.0739 0.332593,0.0698 0.644656,0.21352 z" />
        <path
           inkscape:connector-curvature="0"
           id="path1015"
           style="stroke:#d2bd00;stroke-width:0.21023154;stroke-opacity:1"
           d="m 67.468182,286.80062 q -0.607701,0 -0.960824,0.47631 -0.353124,0.4722 -0.353124,1.29752 0,0.82532 0.349018,1.30163 0.353123,0.4722 0.96493,0.4722 0.603595,0 0.956718,-0.47631 0.353123,-0.4763 0.353123,-1.29752 0,-0.81711 -0.353123,-1.29342 -0.353123,-0.48041 -0.956718,-0.48041 z m 0,-0.64055 q 0.985461,0 1.547994,0.64055 0.562534,0.64055 0.562534,1.77383 0,1.12917 -0.562534,1.77383 -0.562533,0.64055 -1.547994,0.64055 -0.989567,0 -1.552101,-0.64055 -0.558427,-0.64466 -0.558427,-1.77383 0,-1.13328 0.558427,-1.77383 0.562534,-0.64055 1.552101,-0.64055 z" />
        <path
           inkscape:connector-curvature="0"
           id="path1017"
           style="stroke:#d2bd00;stroke-width:0.21023154;stroke-opacity:1"
           d="m 74.407463,287.15374 q 0.28332,-0.50915 0.677505,-0.75141 0.394184,-0.24226 0.927975,-0.24226 0.718565,0 1.108643,0.50505 0.390079,0.50094 0.390079,1.42892 v 2.77571 h -0.759626 v -2.75108 q 0,-0.66108 -0.234047,-0.98135 -0.234047,-0.32028 -0.714459,-0.32028 -0.587171,0 -0.927976,0.39008 -0.340805,0.39008 -0.340805,1.06348 v 2.59915 h -0.759626 v -2.75108 q 0,-0.66518 -0.234047,-0.98135 -0.234047,-0.32028 -0.722671,-0.32028 -0.578958,0 -0.919763,0.39419 -0.340805,0.39008 -0.340805,1.05937 v 2.59915 h -0.759626 v -4.59882 h 0.759626 v 0.71446 q 0.258683,-0.42292 0.620019,-0.62412 0.361335,-0.2012 0.858172,-0.2012 0.500942,0 0.849959,0.25458 0.353124,0.25457 0.521473,0.73909 z" />
        <path
           inkscape:connector-curvature="0"
           id="path1019"
           style="stroke:#d2bd00;stroke-width:0.21023154;stroke-opacity:1"
           d="m 80.365394,284.73936 h 0.698034 l -2.135164,6.91055 h -0.698035 z" />
        <path
           inkscape:connector-curvature="0"
           id="path1021"
           style="stroke:#d2bd00;stroke-width:0.21023154;stroke-opacity:1"
           d="m 83.777555,291.29678 q -0.320275,0.82122 -0.624125,1.07169 -0.30385,0.25047 -0.813005,0.25047 H 81.73683 v -0.63233 h 0.443458 q 0.312062,0 0.484518,-0.14782 0.172455,-0.14782 0.381866,-0.69804 l 0.135501,-0.34491 -1.860057,-4.52491 h 0.800686 l 1.437131,3.59694 1.43713,-3.59694 h 0.800687 z" />
        <path
           inkscape:connector-curvature="0"
           id="path1023"
           style="stroke:#d2bd00;stroke-width:0.21023154;stroke-opacity:1"
           d="m 88.754133,291.29678 q -0.320275,0.82122 -0.624125,1.07169 -0.303851,0.25047 -0.813005,0.25047 h -0.603595 v -0.63233 h 0.443457 q 0.312063,0 0.484519,-0.14782 0.172455,-0.14782 0.381866,-0.69804 l 0.1355,-0.34491 -1.860057,-4.52491 h 0.800687 l 1.43713,3.59694 1.43713,-3.59694 h 0.800687 z" />
        <path
           inkscape:connector-curvature="0"
           id="path1025"
           style="stroke:#d2bd00;stroke-width:0.21023154;stroke-opacity:1"
           d="m 91.932245,284.73936 h 3.256126 v 0.69804 h -2.4965 v 1.50283 q 0.180668,-0.0616 0.361335,-0.0903 0.180668,-0.0328 0.361336,-0.0328 1.026522,0 1.62601,0.56254 0.599489,0.56253 0.599489,1.52336 0,0.98956 -0.615913,1.53978 -0.615913,0.54611 -1.736875,0.54611 -0.385972,0 -0.788368,-0.0657 -0.398291,-0.0657 -0.825324,-0.19709 v -0.83354 q 0.369548,0.2012 0.763732,0.29975 0.394185,0.0985 0.833536,0.0985 0.710353,0 1.125068,-0.37365 0.414714,-0.37365 0.414714,-1.0142 0,-0.64055 -0.414714,-1.01421 -0.414715,-0.37365 -1.125068,-0.37365 -0.332593,0 -0.665186,0.0739 -0.328487,0.0739 -0.673398,0.22994 z" />
        <path
           inkscape:connector-curvature="0"
           id="path1027"
           style="stroke:#d2bd00;stroke-width:0.21023154;stroke-opacity:1"
           d="m 99.052194,285.28547 q -0.64055,0 -0.96493,0.63234 -0.320275,0.62823 -0.320275,1.89291 0,1.26057 0.320275,1.8929 0.32438,0.62823 0.96493,0.62823 0.644655,0 0.964926,-0.62823 0.32438,-0.63233 0.32438,-1.8929 0,-1.26468 -0.32438,-1.89291 -0.320271,-0.63234 -0.964926,-0.63234 z m 0,-0.65697 q 1.030626,0 1.572626,0.81711 0.54611,0.81301 0.54611,2.36511 0,1.54799 -0.54611,2.3651 -0.542,0.81301 -1.572626,0.81301 -1.030628,0 -1.576737,-0.81301 -0.542004,-0.81711 -0.542004,-2.3651 0,-1.5521 0.542004,-2.36511 0.546109,-0.81711 1.576737,-0.81711 z" />
        <path
           inkscape:connector-curvature="0"
           id="path1029"
           style="stroke:#d2bd00;stroke-width:0.21023154;stroke-opacity:1"
           d="m 103.34716,290.17172 h 2.89479 v 0.69803 h -3.89257 v -0.69803 q 0.4722,-0.48863 1.28521,-1.30985 0.81711,-0.82532 1.02652,-1.06347 0.39829,-0.44756 0.55432,-0.75552 0.16014,-0.31206 0.16014,-0.61181 0,-0.48862 -0.34491,-0.79658 -0.34081,-0.30796 -0.89102,-0.30796 -0.39008,0 -0.82533,0.13551 -0.43113,0.1355 -0.92386,0.4106 V 285.035 q 0.50094,-0.2012 0.93618,-0.30385 0.43525,-0.10265 0.79658,-0.10265 0.95262,0 1.51926,0.47631 0.56664,0.4763 0.56664,1.27288 0,0.37776 -0.14372,0.71857 -0.1396,0.3367 -0.51326,0.79658 -0.10265,0.11907 -0.65287,0.68982 -0.55021,0.56664 -1.5521,1.58906 z" />
      </g>
      <path
         inkscape:connector-curvature="0"
         id="path861"
         d="m 42.357941,262.04291 c 0.836872,0.51317 -0.278867,1.38127 -0.852932,1.39093 -1.555678,0.0262 -2.246741,-1.80878 -1.928942,-3.09679 0.56847,-2.30396 3.263346,-3.20404 5.340668,-2.46695 3.048552,1.08171 4.18357,4.73542 3.004952,7.58453 -1.570912,3.79742 -6.213423,5.17221 -9.828403,3.54296 -4.549083,-2.05024 -6.165482,-7.69418 -4.080963,-12.07227 2.524631,-5.30246 9.176472,-7.16143 14.316139,-4.61897 6.05692,2.9962 8.159044,10.65972 5.156974,16.56001 -3.46601,6.81211 -12.143607,9.15778 -18.803875,5.69498 -7.56782,-3.93466 -10.157298,-13.62794 -6.232985,-21.04775 4.402487,-8.32389 15.112606,-11.15738 23.291611,-6.77099 9.080246,4.86973 12.157895,16.59752 7.308995,25.53548"
         style="fill:none;fill-rule:evenodd;stroke:#d2bd00;stroke-width:0.26458332;stroke-opacity:1" />
      <g
         style="stroke:#d2bd00;stroke-opacity:1"
         id="g889"
         transform="translate(-176.42678)">
        <path
           inkscape:connector-curvature="0"
           id="path883"
           d="m 186.7169,227.00705 v 70.38661"
           style="fill:none;stroke:#d2bd00;stroke-width:0.15765341px;stroke-linecap:butt;stroke-linejoin:miter;stroke-opacity:1" />
        <path
           inkscape:connector-curvature="0"
           id="path885"
           d="m 186.83333,296.85768 2.51943,-4.88141"
           style="fill:none;stroke:#d2bd00;stroke-width:0.26458332px;stroke-linecap:butt;stroke-linejoin:miter;stroke-opacity:1" />
        <path
           style="fill:none;stroke:#d2bd00;stroke-width:0.26458332px;stroke-linecap:butt;stroke-linejoin:miter;stroke-opacity:1"
           d="m 186.86437,296.85768 -2.51943,-4.88141"
           id="path887"
           inkscape:connector-curvature="0" />
      </g>
    </g>
    <g
       id="g1290">
      <g
         transform="matrix(1.0128791,0,0,0.9998521,-0.00974878,0.02390038)"
         style="stroke:#ff0000;stroke-opacity:1"
         id="g881">
        <path
           inkscape:connector-curvature="0"
           id="path831"
           d="M 0.78732223,161.58057 5.6687201,164.1"
           style="fill:none;stroke:#ff0000;stroke-width:0.26458332px;stroke-linecap:butt;stroke-linejoin:miter;stroke-opacity:1" />
        <path
           style="fill:none;stroke:#ff0000;stroke-width:0.26458332px;stroke-linecap:butt;stroke-linejoin:miter;stroke-opacity:1"
           d="M 0.78732223,161.61161 5.6687201,159.09218"
           id="path833"
           inkscape:connector-curvature="0" />
        <path
           style="fill:none;stroke:#ff0000;stroke-width:0.18583083px;stroke-linecap:butt;stroke-linejoin:miter;stroke-opacity:1"
           d="M 0.78732223,161.57831 H 98.582818"
           id="path851"
           inkscape:connector-curvature="0" />
      </g>
      <path
         id="path855"
         d="m 42.357941,193.3884 c 0.836872,0.51317 -0.278867,1.38127 -0.852932,1.39093 -1.555678,0.0262 -2.246741,-1.80878 -1.928942,-3.0968 0.56847,-2.30395 3.263346,-3.20403 5.340668,-2.46694 3.048552,1.08171 4.18357,4.73542 3.004952,7.58453 -1.570912,3.79742 -6.213423,5.17221 -9.828403,3.54296 -4.549083,-2.05024 -6.165482,-7.69418 -4.080963,-12.07227 2.524631,-5.30246 9.176472,-7.16143 14.316139,-4.61897 6.05692,2.9962 8.159044,10.65972 5.156974,16.56001 -3.46601,6.81211 -12.143607,9.15778 -18.803875,5.69498 -7.56782,-3.93466 -10.157298,-13.62795 -6.232985,-21.04775 4.402487,-8.32389 15.112606,-11.15738 23.291611,-6.77099 9.080246,4.86973 12.157895,16.59752 7.308995,25.53548"
         style="fill:none;fill-rule:evenodd;stroke:#ff0000;stroke-width:0.26458332;stroke-opacity:1"
         inkscape:connector-curvature="0" />
      <g
         style="stroke:#ff0000;stroke-opacity:1"
         id="g897"
         transform="translate(-176.42678)">
        <path
           style="fill:none;stroke:#ff0000;stroke-width:0.26458332px;stroke-linecap:butt;stroke-linejoin:miter;stroke-opacity:1"
           d="m 186.83333,157.56787 2.51943,4.88141"
           id="path891"
           inkscape:connector-curvature="0" />
        <path
           inkscape:connector-curvature="0"
           id="path893"
           d="m 186.86437,157.56787 -2.51943,4.88141"
           style="fill:none;stroke:#ff0000;stroke-width:0.26458332px;stroke-linecap:butt;stroke-linejoin:miter;stroke-opacity:1" />
        <path
           style="fill:none;stroke:#ff0000;stroke-width:0.15678507px;stroke-linecap:butt;stroke-linejoin:miter;stroke-opacity:1"
           d="m 186.7169,157.39366 v 69.61339"
           id="path895"
           inkscape:connector-curvature="0" />
      </g>
    </g>
  </g>
  <defs
     id="defs1104">
    <marker
       style="overflow:visible"
       refY="-2.41063"
       refX="-8"
       orient="auto"
       id="DrawCurveMarker">
      <path
         id="path1101"
         style="fill:#000044; fill-rule:evenodd;stroke-width:0.62500000;stroke-linejoin:round;"
         d="m -6.55552,-2.41063 0,0 L -13.11104,0 c 1.0473,-1.42323 1.04126,-3.37047 0,-4.82126" />
    </marker>
  </defs>
  <defs
     id="defs1109">
    <marker
       style="overflow:visible"
       refY="-2.41063"
       refX="8"
       orient="auto"
       id="DrawCurveMarker_r">
      <path
         id="path1106"
         style="fill:#000044; fill-rule:evenodd;stroke-width:0.62500000;stroke-linejoin:round;"
         d="m 6.55552,-2.41063 0,0 L 13.11104,0 c -1.0473,-1.42323 -1.04126,-3.37047 0,-4.82126" />
    </marker>
  </defs>
</svg>
